<svg version="1.1" xmlns="http://www.w3.org/2000/svg" viewBox="0 0 1290.9992879183487 593.3038554135162" width="1290.9992879183487" height="593.3038554135162" class="excalidraw-svg">
  <!-- svg-source:excalidraw -->
  
  <defs>
    <style class="style-fonts">
      
    </style>
    
  </defs>
  <rect x="0" y="0" width="1290.9992879183487" height="593.3038554135162" fill="#ffffff"></rect><g stroke-linecap="round" transform="translate(92.67222412985677 161.3557548526744) rotate(0 122.181640625 30.26171875)"><path d="M15.13 0 C74.56 -0.15, 130.08 1.89, 229.23 0 M15.13 0 C61.3 0.44, 108.33 -0.06, 229.23 0 M229.23 0 C239.41 0.97, 243.61 7.02, 244.36 15.13 M229.23 0 C240.54 -1.01, 244.79 4.18, 244.36 15.13 M244.36 15.13 C245.15 26.01, 245.51 37.29, 244.36 45.39 M244.36 15.13 C243.38 25.76, 244.2 35.72, 244.36 45.39 M244.36 45.39 C242.37 55.48, 238.83 61.04, 229.23 60.52 M244.36 45.39 C245.98 56.67, 241.24 60.4, 229.23 60.52 M229.23 60.52 C163.63 62.4, 96.74 61.98, 15.13 60.52 M229.23 60.52 C154.22 59.03, 77.88 59.72, 15.13 60.52 M15.13 60.52 C3.74 59.55, 0.61 53.79, 0 45.39 M15.13 60.52 C2.88 60, 2 53.28, 0 45.39 M0 45.39 C-1.37 40.35, 1.25 33.65, 0 15.13 M0 45.39 C-0.7 34.29, 0 24.64, 0 15.13 M0 15.13 C-1.88 6.93, 4.62 1.99, 15.13 0 M0 15.13 C-1.03 4.16, 4.12 1.83, 15.13 0" stroke="#1e1e1e" stroke-width="2" fill="none"></path></g><g transform="translate(139.41393678945417 179.6174736026744) rotate(0 75.4399279654026 12)"><text x="75.4399279654026" y="17.119999999999997" font-family="Local Font, Segoe UI Emoji" font-size="20px" fill="#1e1e1e" text-anchor="middle" style="white-space: pre;" direction="ltr" dominant-baseline="alphabetic">current instance</text></g><g stroke-linecap="round" transform="translate(97.01773422400083 278.2960903326436) rotate(0 305.29720931809715 142.6875996066597)"><path d="M32 0 C174.42 -2.02, 318.01 -1.39, 578.59 0 M32 0 C182.49 -1.45, 332.74 -1.55, 578.59 0 M578.59 0 C600.83 -1.89, 609.65 12.34, 610.59 32 M578.59 0 C600.27 0.96, 609.53 10.2, 610.59 32 M610.59 32 C611.12 107.05, 612.4 177.71, 610.59 253.38 M610.59 32 C608.62 94.27, 609.59 156.24, 610.59 253.38 M610.59 253.38 C610.17 275.77, 598.96 284.9, 578.59 285.38 M610.59 253.38 C609.98 276.39, 601.88 287.03, 578.59 285.38 M578.59 285.38 C469.51 284.93, 359.06 285.08, 32 285.38 M578.59 285.38 C395.06 282.94, 212.44 283.55, 32 285.38 M32 285.38 C10.88 287.21, 0.74 274.6, 0 253.38 M32 285.38 C12.79 283.72, 0.31 272.9, 0 253.38 M0 253.38 C1 200.69, 1.72 144.35, 0 32 M0 253.38 C-2.56 171.18, -1.13 88.73, 0 32 M0 32 C-0.33 11.67, 10.36 0.35, 32 0 M0 32 C0.91 9, 9.69 -0.46, 32 0" stroke="#1e1e1e" stroke-width="2" fill="none"></path></g><g transform="translate(133.96459936929932 310.13766911939206) rotate(0 25.60997772216797 12)"><text x="0" y="17.119999999999997" font-family="Local Font, Segoe UI Emoji" font-size="20px" fill="#1e1e1e" text-anchor="start" style="white-space: pre;" direction="ltr" dominant-baseline="alphabetic">setup</text></g><g transform="translate(138.3645858058394 355.2117595198532) rotate(0 242.25979614257812 84)"><text x="0" y="17.119999999999997" font-family="Local Font, Segoe UI Emoji" font-size="20px" fill="#1e1e1e" text-anchor="start" style="white-space: pre;" direction="ltr" dominant-baseline="alphabetic">const showXxxDrawer = useDialogShow(XxxDrawer)</text><text x="0" y="41.12" font-family="Local Font, Segoe UI Emoji" font-size="20px" fill="#1e1e1e" text-anchor="start" style="white-space: pre;" direction="ltr" dominant-baseline="alphabetic">watch(() =&gt; props.xxx, () =&gt; {</text><text x="0" y="65.12" font-family="Local Font, Segoe UI Emoji" font-size="20px" fill="#1e1e1e" text-anchor="start" style="white-space: pre;" direction="ltr" dominant-baseline="alphabetic">  showXxxDrawer({})</text><text x="0" y="89.12" font-family="Local Font, Segoe UI Emoji" font-size="20px" fill="#1e1e1e" text-anchor="start" style="white-space: pre;" direction="ltr" dominant-baseline="alphabetic">}, { </text><text x="0" y="113.12" font-family="Local Font, Segoe UI Emoji" font-size="20px" fill="#1e1e1e" text-anchor="start" style="white-space: pre;" direction="ltr" dominant-baseline="alphabetic">  immediate: true </text><text x="0" y="137.12" font-family="Local Font, Segoe UI Emoji" font-size="20px" fill="#1e1e1e" text-anchor="start" style="white-space: pre;" direction="ltr" dominant-baseline="alphabetic">});</text><text x="0" y="161.12" font-family="Local Font, Segoe UI Emoji" font-size="20px" fill="#1e1e1e" text-anchor="start" style="white-space: pre;" direction="ltr" dominant-baseline="alphabetic">getCurrentInstance</text></g><g stroke-linecap="round"><g transform="translate(329.8535146315829 416.122545861449) rotate(0 239.7504323352888 -0.5099860974534636)"><path d="M-0.34 0.75 C79.86 0.44, 400.42 -2.01, 480.55 -2.19 M1.68 0.1 C81.87 -0.09, 400.4 -0.87, 480.15 -1.26" stroke="#e03131" stroke-width="2" fill="none"></path></g><g transform="translate(329.8535146315829 416.122545861449) rotate(0 239.7504323352888 -0.5099860974534636)"><path d="M456.68 7.37 C463.71 7.06, 466.27 4.75, 480.15 -1.26 M456.68 7.37 C465.03 5.07, 473.2 1.6, 480.15 -1.26" stroke="#e03131" stroke-width="2" fill="none"></path></g><g transform="translate(329.8535146315829 416.122545861449) rotate(0 239.7504323352888 -0.5099860974534636)"><path d="M456.62 -9.73 C463.62 -5.85, 466.2 -3.96, 480.15 -1.26 M456.62 -9.73 C465.07 -5.88, 473.26 -3.19, 480.15 -1.26" stroke="#e03131" stroke-width="2" fill="none"></path></g></g><mask></mask><g stroke-linecap="round" transform="translate(833.5353158590761 315.63358312705543) rotate(0 223.73198602963635 70.79312332576046)"><path d="M32 0 C162.1 1.69, 292 1.21, 415.46 0 M32 0 C140.67 -0.84, 250.28 -0.96, 415.46 0 M415.46 0 C434.98 -0.09, 447.74 8.71, 447.46 32 M415.46 0 C434.61 0.23, 446.02 11.72, 447.46 32 M447.46 32 C445.29 51.16, 447.58 66.85, 447.46 109.59 M447.46 32 C447.1 49.46, 446.56 68.84, 447.46 109.59 M447.46 109.59 C445.63 129.07, 437.44 140.95, 415.46 141.59 M447.46 109.59 C449.11 128.94, 436.71 140.12, 415.46 141.59 M415.46 141.59 C319.99 143.56, 223.52 142.93, 32 141.59 M415.46 141.59 C319.25 141.56, 222.53 141.82, 32 141.59 M32 141.59 C12.05 140.24, -1.15 130.82, 0 109.59 M32 141.59 C12.64 142.2, 1.3 132.36, 0 109.59 M0 109.59 C0.14 84.77, -2.38 62.24, 0 32 M0 109.59 C0.98 89.24, 0.7 69.07, 0 32 M0 32 C0.07 11.1, 10.53 0.74, 32 0 M0 32 C0.56 9.9, 8.68 -0.77, 32 0" stroke="#1e1e1e" stroke-width="2" fill="none"></path></g><g transform="translate(842.1725272116921 355.90620867383245) rotate(0 197.75982666015625 36)"><text x="0" y="17.119999999999997" font-family="Local Font, Segoe UI Emoji" font-size="20px" fill="#1e1e1e" text-anchor="start" style="white-space: pre;" direction="ltr" dominant-baseline="alphabetic">const app = new Vue({...});</text><text x="0" y="41.12" font-family="Local Font, Segoe UI Emoji" font-size="20px" fill="#1e1e1e" text-anchor="start" style="white-space: pre;" direction="ltr" dominant-baseline="alphabetic">const div = document.createElement('div');</text><text x="0" y="65.12" font-family="Local Font, Segoe UI Emoji" font-size="20px" fill="#1e1e1e" text-anchor="start" style="white-space: pre;" direction="ltr" dominant-baseline="alphabetic">app.$mount(div);</text></g><g stroke-linecap="round"><g transform="translate(204.34268081787695 315.964531551999) rotate(0 53.361364484079864 -44.53426469092267)"><path d="M0.76 -1.15 C18.16 -1.4, 86.31 13.27, 103.84 -1.3 C121.37 -15.88, 105.33 -74.11, 105.91 -88.61 M-0.3 0.85 C17.53 0.28, 88.02 12.37, 106.13 -2.89 C124.25 -18.15, 108.09 -76.12, 108.38 -90.71" stroke="#e03131" stroke-width="2" fill="none"></path></g><g transform="translate(204.34268081787695 315.964531551999) rotate(0 53.361364484079864 -44.53426469092267)"><path d="M119.78 -68.45 C114.94 -75.34, 115.67 -80.99, 108.38 -90.71 M119.78 -68.45 C116.24 -74.98, 112.77 -83.79, 108.38 -90.71" stroke="#e03131" stroke-width="2" fill="none"></path></g><g transform="translate(204.34268081787695 315.964531551999) rotate(0 53.361364484079864 -44.53426469092267)"><path d="M102.81 -66.34 C102.26 -73.87, 107.29 -80.05, 108.38 -90.71 M102.81 -66.34 C105 -73.69, 107.28 -83.22, 108.38 -90.71" stroke="#e03131" stroke-width="2" fill="none"></path></g></g><mask></mask><g transform="translate(339.53782509918307 234.7953612966669) rotate(0 70.41992950439453 12)"><text x="0" y="17.119999999999997" font-family="Local Font, Segoe UI Emoji" font-size="20px" fill="#e03131" text-anchor="start" style="white-space: pre;" direction="ltr" dominant-baseline="alphabetic">1. set instance1</text></g><g stroke-linecap="round"><g transform="translate(1060.3217930894175 358.14146688820324) rotate(0 1.1528941032856892 -68.1211216981452)"><path d="M1.01 0.9 C1.26 -21.6, 1.25 -112.74, 1.36 -135.66 M0.09 0.32 C0.72 -22.47, 3.49 -114.84, 3.57 -137.48" stroke="#e03131" stroke-width="2" fill="none"></path></g><g transform="translate(1060.3217930894175 358.14146688820324) rotate(0 1.1528941032856892 -68.1211216981452)"><path d="M11.68 -113.83 C10.97 -122.17, 8.1 -128.45, 3.57 -137.48 M11.68 -113.83 C9.71 -119.2, 8.11 -126.93, 3.57 -137.48" stroke="#e03131" stroke-width="2" fill="none"></path></g><g transform="translate(1060.3217930894175 358.14146688820324) rotate(0 1.1528941032856892 -68.1211216981452)"><path d="M-5.42 -114.15 C-1.19 -122.55, 0.88 -128.74, 3.57 -137.48 M-5.42 -114.15 C-2.83 -119.57, 0.11 -127.22, 3.57 -137.48" stroke="#e03131" stroke-width="2" fill="none"></path></g></g><mask></mask><g stroke-linecap="round" transform="translate(871.415347055034 22.467532467532465) rotate(0 191.03319656844462 96.25987589434067)"><path d="M32 0 C144.28 -0.78, 258.15 -3.01, 350.07 0 M32 0 C96.19 0.13, 160.4 0.28, 350.07 0 M350.07 0 C370.44 -0.93, 382.87 8.89, 382.07 32 M350.07 0 C370.63 -0.11, 382.18 11.88, 382.07 32 M382.07 32 C381.29 59.15, 382.95 90.43, 382.07 160.52 M382.07 32 C381.65 71.78, 381.87 110.41, 382.07 160.52 M382.07 160.52 C382.56 180.34, 371.55 193.91, 350.07 192.52 M382.07 160.52 C381.66 180.53, 372.76 194.79, 350.07 192.52 M350.07 192.52 C229.13 194.35, 108.45 192.41, 32 192.52 M350.07 192.52 C232.76 192.54, 116.29 192.55, 32 192.52 M32 192.52 C9.67 191.37, -0.11 180.94, 0 160.52 M32 192.52 C10.1 191.42, -1.87 181.22, 0 160.52 M0 160.52 C-0.53 134.44, 0.33 104.9, 0 32 M0 160.52 C1.58 115.37, 0.35 70.65, 0 32 M0 32 C-0.54 10.21, 9.59 -1.68, 32 0 M0 32 C-1.1 9.45, 8.56 1.35, 32 0" stroke="#1e1e1e" stroke-width="2" fill="none"></path></g><g transform="translate(896.9743311518772 42.649961005052376) rotate(0 25.60997772216797 12)"><text x="0" y="17.119999999999997" font-family="Local Font, Segoe UI Emoji" font-size="20px" fill="#1e1e1e" text-anchor="start" style="white-space: pre;" direction="ltr" dominant-baseline="alphabetic">setup</text></g><g transform="translate(552.6306330744976 425.10155640703954) rotate(0 74.94994080066681 12)"><text x="0" y="17.119999999999997" font-family="Local Font, Segoe UI Emoji" font-size="20px" fill="#e03131" text-anchor="start" style="white-space: pre;" direction="ltr" dominant-baseline="alphabetic">2. createDrawer</text></g><g transform="translate(1077.4931334983557 256.1985012376658) rotate(0 73.42994475364685 12)"><text x="0" y="17.119999999999997" font-family="Local Font, Segoe UI Emoji" font-size="20px" fill="#e03131" text-anchor="start" style="white-space: pre;" direction="ltr" dominant-baseline="alphabetic">3.mount drawer</text></g><g stroke-linecap="round"><g transform="translate(863.646197144892 53.18605676308027) rotate(0 -292.634363026008 42.75745142585873)"><path d="M1.15 0.41 C-85.72 -1.22, -423.63 -26.71, -521.28 -10.75 C-618.92 5.21, -573.93 78.56, -584.75 96.16 M0.29 -0.42 C-86.66 -1.8, -424.2 -25.19, -521.79 -9.45 C-619.38 6.29, -574.47 76.51, -585.24 94" stroke="#e03131" stroke-width="2" fill="none"></path></g><g transform="translate(863.646197144892 53.18605676308027) rotate(0 -292.634363026008 42.75745142585873)"><path d="M-593.78 70.5 C-590.76 78.75, -589.68 85.19, -585.24 94 M-593.78 70.5 C-592.14 78.57, -587.92 86.93, -585.24 94" stroke="#e03131" stroke-width="2" fill="none"></path></g><g transform="translate(863.646197144892 53.18605676308027) rotate(0 -292.634363026008 42.75745142585873)"><path d="M-576.68 70.51 C-578.72 78.92, -582.7 85.36, -585.24 94 M-576.68 70.51 C-580.67 78.44, -582.07 86.8, -585.24 94" stroke="#e03131" stroke-width="2" fill="none"></path></g></g><mask></mask><g transform="translate(515.4233494964569 10) rotate(0 77.72993469238281 12)"><text x="0" y="17.119999999999997" font-family="Local Font, Segoe UI Emoji" font-size="20px" fill="#e03131" text-anchor="start" style="white-space: pre;" direction="ltr" dominant-baseline="alphabetic">4. set instance2 </text></g><g transform="translate(878.7341900918926 175.84856396866843) rotate(0 51.00995817780495 12)"><text x="0" y="17.119999999999997" font-family="Local Font, Segoe UI Emoji" font-size="20px" fill="#1e1e1e" text-anchor="start" style="white-space: pre;" direction="ltr" dominant-baseline="alphabetic">after setup</text></g><g stroke-linecap="round"><g transform="translate(863.1796141195622 187.7247295785155) rotate(0 -262.56145942830017 -2.129463226068964)"><path d="M-0.58 1 C-88.24 0.33, -438.5 -3.76, -525.79 -4.64 M1.32 0.49 C-85.97 0.04, -435.76 -2.73, -523.43 -3.3" stroke="#e03131" stroke-width="2" fill="none"></path></g><g transform="translate(863.1796141195622 187.7247295785155) rotate(0 -262.56145942830017 -2.129463226068964)"><path d="M-499.87 -11.68 C-505.66 -10.27, -515.39 -5.19, -523.43 -3.3 M-499.87 -11.68 C-507.35 -8.54, -514.28 -6.69, -523.43 -3.3" stroke="#e03131" stroke-width="2" fill="none"></path></g><g transform="translate(863.1796141195622 187.7247295785155) rotate(0 -262.56145942830017 -2.129463226068964)"><path d="M-500 5.42 C-505.66 1.45, -515.35 1.14, -523.43 -3.3 M-500 5.42 C-507.56 3.43, -514.46 0.15, -523.43 -3.3" stroke="#e03131" stroke-width="2" fill="none"></path></g></g><mask></mask><g transform="translate(559.135668509037 158.58499203146727) rotate(0 45.3399658203125 12)"><text x="0" y="17.119999999999997" font-family="Local Font, Segoe UI Emoji" font-size="20px" fill="#e03131" text-anchor="start" style="white-space: pre;" direction="ltr" dominant-baseline="alphabetic">5. set null</text></g><g stroke-linecap="round"><g transform="translate(132.8795225662067 515.4396256485031) rotate(0 -57.92953782509922 -164.29419144823842)"><path d="M1.1 0.05 C-15.5 0.33, -80.9 57.01, -100.35 2.19 C-119.8 -52.64, -124.24 -274.14, -115.62 -328.9 C-107 -383.67, -59.67 -326.66, -48.64 -326.41 M0.22 -0.96 C-16.48 -1.06, -81.96 55.53, -101.37 0.56 C-120.78 -54.4, -125.14 -275.91, -116.26 -330.76 C-107.37 -385.61, -58.92 -329.15, -48.06 -328.55" stroke="#e03131" stroke-width="2" fill="none"></path></g><g transform="translate(132.8795225662067 515.4396256485031) rotate(0 -57.92953782509922 -164.29419144823842)"><path d="M-72.52 -333.71 C-66.64 -332.94, -59.37 -331.1, -48.06 -328.55 M-72.52 -333.71 C-63.43 -332.1, -54.33 -330.71, -48.06 -328.55" stroke="#e03131" stroke-width="2" fill="none"></path></g><g transform="translate(132.8795225662067 515.4396256485031) rotate(0 -57.92953782509922 -164.29419144823842)"><path d="M-63.48 -348.22 C-59.66 -343.95, -54.53 -338.69, -48.06 -328.55 M-63.48 -348.22 C-57.72 -341.09, -52.02 -334.22, -48.06 -328.55" stroke="#e03131" stroke-width="2" fill="none"></path></g></g><mask></mask><g transform="translate(10 559.3038554135162) rotate(0 34.22997283935547 12)"><text x="0" y="17.119999999999997" font-family="Local Font, Segoe UI Emoji" font-size="20px" fill="#e03131" text-anchor="start" style="white-space: pre;" direction="ltr" dominant-baseline="alphabetic">get null</text></g></svg>