<svg version="1.1" xmlns="http://www.w3.org/2000/svg" viewBox="0 0 1931.6286963340322 640.9441630839666" width="1931.6286963340322" height="640.9441630839666" class="excalidraw-svg">
  <!-- svg-source:excalidraw -->
  
  <defs>
    <style class="style-fonts">
      
    </style>
    
  </defs>
  <rect x="0" y="0" width="1931.6286963340322" height="640.9441630839666" fill="#ffffff"></rect><g stroke-linecap="round" transform="translate(403.9351179682402 68.63676364887272) rotate(0 114.111328125 26.16015625)"><path d="M13.08 0 C80.1 0, 147.12 0, 215.14 0 M13.08 0 C76.42 0, 139.77 0, 215.14 0 M215.14 0 C223.86 0, 228.22 4.36, 228.22 13.08 M215.14 0 C223.86 0, 228.22 4.36, 228.22 13.08 M228.22 13.08 C228.22 22.75, 228.22 32.41, 228.22 39.24 M228.22 13.08 C228.22 21.92, 228.22 30.76, 228.22 39.24 M228.22 39.24 C228.22 47.96, 223.86 52.32, 215.14 52.32 M228.22 39.24 C228.22 47.96, 223.86 52.32, 215.14 52.32 M215.14 52.32 C174.67 52.32, 134.21 52.32, 13.08 52.32 M215.14 52.32 C155.44 52.32, 95.73 52.32, 13.08 52.32 M13.08 52.32 C4.36 52.32, 0 47.96, 0 39.24 M13.08 52.32 C4.36 52.32, 0 47.96, 0 39.24 M0 39.24 C0 28.9, 0 18.56, 0 13.08 M0 39.24 C0 28.89, 0 18.53, 0 13.08 M0 13.08 C0 4.36, 4.36 0, 13.08 0 M0 13.08 C0 4.36, 4.36 0, 13.08 0" stroke="#1e1e1e" stroke-width="2" fill="none"></path></g><g transform="translate(463.46738267771286 83.29691989887272) rotate(0 54.579063415527344 11.5)"><text x="54.579063415527344" y="16.900390625" font-family="Helvetica, Segoe UI Emoji" font-size="20px" fill="#1e1e1e" text-anchor="middle" style="white-space: pre;" direction="ltr" dominant-baseline="alphabetic">proto-a 仓库</text></g><g stroke-linecap="round" transform="translate(23.549626762567073 380.8998646941445) rotate(0 114.111328125 26.16015625)"><path d="M13.08 0 C77.26 0, 141.43 0, 215.14 0 M13.08 0 C62.67 0, 112.26 0, 215.14 0 M215.14 0 C223.86 0, 228.22 4.36, 228.22 13.08 M215.14 0 C223.86 0, 228.22 4.36, 228.22 13.08 M228.22 13.08 C228.22 21.57, 228.22 30.06, 228.22 39.24 M228.22 13.08 C228.22 19.71, 228.22 26.33, 228.22 39.24 M228.22 39.24 C228.22 47.96, 223.86 52.32, 215.14 52.32 M228.22 39.24 C228.22 47.96, 223.86 52.32, 215.14 52.32 M215.14 52.32 C171.84 52.32, 128.54 52.32, 13.08 52.32 M215.14 52.32 C151 52.32, 86.86 52.32, 13.08 52.32 M13.08 52.32 C4.36 52.32, 0 47.96, 0 39.24 M13.08 52.32 C4.36 52.32, 0 47.96, 0 39.24 M0 39.24 C0 32.3, 0 25.36, 0 13.08 M0 39.24 C0 31.79, 0 24.35, 0 13.08 M0 13.08 C0 4.36, 4.36 0, 13.08 0 M0 13.08 C0 4.36, 4.36 0, 13.08 0" stroke="#1e1e1e" stroke-width="2" fill="none"></path></g><g transform="translate(83.08189147203973 395.5600209441445) rotate(0 54.579063415527344 11.5)"><text x="54.579063415527344" y="16.900390625" font-family="Helvetica, Segoe UI Emoji" font-size="20px" fill="#1e1e1e" text-anchor="middle" style="white-space: pre;" direction="ltr" dominant-baseline="alphabetic">proto-b 仓库</text></g><g stroke-linecap="round" transform="translate(10 566.4266418993648) rotate(0 114.111328125 26.16015625)"><path d="M13.08 0 C78.63 0, 144.18 0, 215.14 0 M13.08 0 C84.79 0, 156.51 0, 215.14 0 M215.14 0 C223.86 0, 228.22 4.36, 228.22 13.08 M215.14 0 C223.86 0, 228.22 4.36, 228.22 13.08 M228.22 13.08 C228.22 20.51, 228.22 27.94, 228.22 39.24 M228.22 13.08 C228.22 22.79, 228.22 32.5, 228.22 39.24 M228.22 39.24 C228.22 47.96, 223.86 52.32, 215.14 52.32 M228.22 39.24 C228.22 47.96, 223.86 52.32, 215.14 52.32 M215.14 52.32 C157.69 52.32, 100.23 52.32, 13.08 52.32 M215.14 52.32 C166.15 52.32, 117.15 52.32, 13.08 52.32 M13.08 52.32 C4.36 52.32, 0 47.96, 0 39.24 M13.08 52.32 C4.36 52.32, 0 47.96, 0 39.24 M0 39.24 C0 33.03, 0 26.82, 0 13.08 M0 39.24 C0 32.84, 0 26.44, 0 13.08 M0 13.08 C0 4.36, 4.36 0, 13.08 0 M0 13.08 C0 4.36, 4.36 0, 13.08 0" stroke="#1e1e1e" stroke-width="2" fill="none"></path></g><g transform="translate(70.09378814697266 581.0867981493648) rotate(0 54.017539978027344 11.5)"><text x="54.017539978027344" y="16.900390625" font-family="Helvetica, Segoe UI Emoji" font-size="20px" fill="#1e1e1e" text-anchor="middle" style="white-space: pre;" direction="ltr" dominant-baseline="alphabetic">proto-c 仓库</text></g><g stroke-linecap="round" transform="translate(398.55855708206224 274.4621309760197) rotate(0 258.7542870887288 177.04028013379587)"><path d="M32 0 C132.73 0, 233.46 0, 485.51 0 M32 0 C145.76 0, 259.52 0, 485.51 0 M485.51 0 C506.84 0, 517.51 10.67, 517.51 32 M485.51 0 C506.84 0, 517.51 10.67, 517.51 32 M517.51 32 C517.51 96.16, 517.51 160.31, 517.51 322.08 M517.51 32 C517.51 101.72, 517.51 171.44, 517.51 322.08 M517.51 322.08 C517.51 343.41, 506.84 354.08, 485.51 354.08 M517.51 322.08 C517.51 343.41, 506.84 354.08, 485.51 354.08 M485.51 354.08 C367.88 354.08, 250.25 354.08, 32 354.08 M485.51 354.08 C310.99 354.08, 136.48 354.08, 32 354.08 M32 354.08 C10.67 354.08, 0 343.41, 0 322.08 M32 354.08 C10.67 354.08, 0 343.41, 0 322.08 M0 322.08 C0 245.37, 0 168.66, 0 32 M0 322.08 C0 236.68, 0 151.28, 0 32 M0 32 C0 10.67, 10.67 0, 32 0 M0 32 C0 10.67, 10.67 0, 32 0" stroke="#1e1e1e" stroke-width="2" fill="none"></path></g><g transform="translate(423.7815833372631 286.1392804562098) rotate(0 56.6015625 11.5)"><text x="0" y="16.900390625" font-family="Helvetica, Segoe UI Emoji" font-size="20px" fill="#1e1e1e" text-anchor="start" style="white-space: pre;" direction="ltr" dominant-baseline="alphabetic">proto-builder</text></g><g stroke-linecap="round" transform="translate(442.18527490719066 328.75987482910057) rotate(0 216.98806735584714 38.54499642798214)"><path d="M19.27 0 C137.69 0, 256.11 0, 414.7 0 M19.27 0 C167.04 0, 314.8 0, 414.7 0 M414.7 0 C427.55 0, 433.98 6.42, 433.98 19.27 M414.7 0 C427.55 0, 433.98 6.42, 433.98 19.27 M433.98 19.27 C433.98 31.71, 433.98 44.14, 433.98 57.82 M433.98 19.27 C433.98 34.44, 433.98 49.6, 433.98 57.82 M433.98 57.82 C433.98 70.67, 427.55 77.09, 414.7 77.09 M433.98 57.82 C433.98 70.67, 427.55 77.09, 414.7 77.09 M414.7 77.09 C320.02 77.09, 225.35 77.09, 19.27 77.09 M414.7 77.09 C304.84 77.09, 194.99 77.09, 19.27 77.09 M19.27 77.09 C6.42 77.09, 0 70.67, 0 57.82 M19.27 77.09 C6.42 77.09, 0 70.67, 0 57.82 M0 57.82 C0 46.37, 0 34.93, 0 19.27 M0 57.82 C0 44.39, 0 30.95, 0 19.27 M0 19.27 C0 6.42, 6.42 0, 19.27 0 M0 19.27 C0 6.42, 6.42 0, 19.27 0" stroke="#1e1e1e" stroke-width="2" fill="none"></path></g><g transform="translate(466.28672167772027 358.18961749644404) rotate(0 72.6318359375 11.5)"><text x="0" y="16.900390625" font-family="Helvetica, Segoe UI Emoji" font-size="20px" fill="#1e1e1e" text-anchor="start" style="white-space: pre;" direction="ltr" dominant-baseline="alphabetic">package/proto-a</text></g><g stroke-linecap="round" transform="translate(439.78956223419203 422.215760282538) rotate(0 216.98806735584714 38.54499642798214)"><path d="M19.27 0 C165.68 0, 312.1 0, 414.7 0 M19.27 0 C157.08 0, 294.89 0, 414.7 0 M414.7 0 C427.55 0, 433.98 6.42, 433.98 19.27 M414.7 0 C427.55 0, 433.98 6.42, 433.98 19.27 M433.98 19.27 C433.98 32.62, 433.98 45.96, 433.98 57.82 M433.98 19.27 C433.98 29.96, 433.98 40.65, 433.98 57.82 M433.98 57.82 C433.98 70.67, 427.55 77.09, 414.7 77.09 M433.98 57.82 C433.98 70.67, 427.55 77.09, 414.7 77.09 M414.7 77.09 C321.81 77.09, 228.92 77.09, 19.27 77.09 M414.7 77.09 C332.19 77.09, 249.68 77.09, 19.27 77.09 M19.27 77.09 C6.42 77.09, 0 70.67, 0 57.82 M19.27 77.09 C6.42 77.09, 0 70.67, 0 57.82 M0 57.82 C0 45.75, 0 33.69, 0 19.27 M0 57.82 C0 43.96, 0 30.1, 0 19.27 M0 19.27 C0 6.42, 6.42 0, 19.27 0 M0 19.27 C0 6.42, 6.42 0, 19.27 0" stroke="#1e1e1e" stroke-width="2" fill="none"></path></g><g transform="translate(464.89100900472164 451.64550294988146) rotate(0 72.4658203125 11.5)"><text x="0" y="16.900390625" font-family="Helvetica, Segoe UI Emoji" font-size="20px" fill="#1e1e1e" text-anchor="start" style="white-space: pre;" direction="ltr" dominant-baseline="alphabetic">package/proto-b</text></g><g stroke-linecap="round" transform="translate(442.1737293039475 513.2470690548683) rotate(0 216.98806735584714 38.54499642798214)"><path d="M19.27 0 C151.55 0, 283.82 0, 414.7 0 M19.27 0 C105.59 0, 191.91 0, 414.7 0 M414.7 0 C427.55 0, 433.98 6.42, 433.98 19.27 M414.7 0 C427.55 0, 433.98 6.42, 433.98 19.27 M433.98 19.27 C433.98 28.64, 433.98 38.01, 433.98 57.82 M433.98 19.27 C433.98 29.78, 433.98 40.29, 433.98 57.82 M433.98 57.82 C433.98 70.67, 427.55 77.09, 414.7 77.09 M433.98 57.82 C433.98 70.67, 427.55 77.09, 414.7 77.09 M414.7 77.09 C268.54 77.09, 122.38 77.09, 19.27 77.09 M414.7 77.09 C274.97 77.09, 135.24 77.09, 19.27 77.09 M19.27 77.09 C6.42 77.09, 0 70.67, 0 57.82 M19.27 77.09 C6.42 77.09, 0 70.67, 0 57.82 M0 57.82 C0 46.19, 0 34.56, 0 19.27 M0 57.82 C0 42.74, 0 27.65, 0 19.27 M0 19.27 C0 6.42, 6.42 0, 19.27 0 M0 19.27 C0 6.42, 6.42 0, 19.27 0" stroke="#1e1e1e" stroke-width="2" fill="none"></path></g><g transform="translate(466.2751760744771 542.6768117222118) rotate(0 72.6318359375 11.5)"><text x="0" y="16.900390625" font-family="Helvetica, Segoe UI Emoji" font-size="20px" fill="#1e1e1e" text-anchor="start" style="white-space: pre;" direction="ltr" dominant-baseline="alphabetic">package/proto-a</text></g><g stroke-linecap="round"><g transform="translate(471.9924019691896 133.26704191391008) rotate(0 -82.7552541130654 123.05165985762379)"><path d="M0 0 C-27.59 23.97, -159.16 102.81, -165.51 143.83 C-171.86 184.85, -59.32 229.06, -38.08 246.1 M0 0 C-27.59 23.97, -159.16 102.81, -165.51 143.83 C-171.86 184.85, -59.32 229.06, -38.08 246.1" stroke="#1e1e1e" stroke-width="2" fill="none"></path></g><g transform="translate(471.9924019691896 133.26704191391008) rotate(0 -82.7552541130654 123.05165985762379)"><path d="M-62.71 241.83 C-54.33 243.28, -45.95 244.74, -38.08 246.1 M-62.71 241.83 C-54.64 243.23, -46.57 244.63, -38.08 246.1" stroke="#1e1e1e" stroke-width="2" fill="none"></path></g><g transform="translate(471.9924019691896 133.26704191391008) rotate(0 -82.7552541130654 123.05165985762379)"><path d="M-54.2 227 C-48.72 233.5, -43.23 240, -38.08 246.1 M-54.2 227 C-48.92 233.26, -43.63 239.52, -38.08 246.1" stroke="#1e1e1e" stroke-width="2" fill="none"></path></g></g><mask></mask><g stroke-linecap="round"><g transform="translate(241.9308127794534 589.0653350454861) rotate(0 95.08551434704265 -15.121608090965537)"><path d="M0 0 C19.62 1.43, 96.85 15.02, 117.72 8.56 C138.59 2.11, 113.14 -30.84, 125.21 -38.73 C137.29 -46.63, 179.34 -38.79, 190.17 -38.81 M0 0 C19.62 1.43, 96.85 15.02, 117.72 8.56 C138.59 2.11, 113.14 -30.84, 125.21 -38.73 C137.29 -46.63, 179.34 -38.79, 190.17 -38.81" stroke="#1e1e1e" stroke-width="2" fill="none"></path></g><g transform="translate(241.9308127794534 589.0653350454861) rotate(0 95.08551434704265 -15.121608090965537)"><path d="M166.01 -32.37 C170.9 -33.67, 175.79 -34.98, 190.17 -38.81 M166.01 -32.37 C173.83 -34.45, 181.64 -36.53, 190.17 -38.81" stroke="#1e1e1e" stroke-width="2" fill="none"></path></g><g transform="translate(241.9308127794534 589.0653350454861) rotate(0 95.08551434704265 -15.121608090965537)"><path d="M167.53 -49.41 C172.11 -47.26, 176.69 -45.12, 190.17 -38.81 M167.53 -49.41 C174.85 -45.98, 182.18 -42.55, 190.17 -38.81" stroke="#1e1e1e" stroke-width="2" fill="none"></path></g></g><mask></mask><g stroke-linecap="round"><g transform="translate(259.5153748618792 409.4648711550015) rotate(0 89.63709368615645 27.069964303037153)"><path d="M0 0 C4.97 -0.61, 12.41 -5.25, 29.83 -3.68 C47.24 -2.11, 89.89 -0.02, 104.49 9.42 C119.08 18.87, 104.95 44.94, 117.42 53 C129.88 61.07, 168.96 57.02, 179.27 57.82 M0 0 C4.97 -0.61, 12.41 -5.25, 29.83 -3.68 C47.24 -2.11, 89.89 -0.02, 104.49 9.42 C119.08 18.87, 104.95 44.94, 117.42 53 C129.88 61.07, 168.96 57.02, 179.27 57.82" stroke="#1e1e1e" stroke-width="2" fill="none"></path></g><g transform="translate(259.5153748618792 409.4648711550015) rotate(0 89.63709368615645 27.069964303037153)"><path d="M155.85 66.57 C161.78 64.35, 167.71 62.14, 179.27 57.82 M155.85 66.57 C164.26 63.43, 172.67 60.29, 179.27 57.82" stroke="#1e1e1e" stroke-width="2" fill="none"></path></g><g transform="translate(259.5153748618792 409.4648711550015) rotate(0 89.63709368615645 27.069964303037153)"><path d="M155.71 49.47 C161.68 51.58, 167.64 53.7, 179.27 57.82 M155.71 49.47 C164.17 52.47, 172.63 55.46, 179.27 57.82" stroke="#1e1e1e" stroke-width="2" fill="none"></path></g></g><mask></mask><g stroke-linecap="round" transform="translate(961.4363814941896 197.83675274113068) rotate(0 194.68179726209308 216.55370517141796)"><path d="M32 0 C106.26 0, 180.52 0, 357.36 0 M32 0 C139.87 0, 247.75 0, 357.36 0 M357.36 0 C378.7 0, 389.36 10.67, 389.36 32 M357.36 0 C378.7 0, 389.36 10.67, 389.36 32 M389.36 32 C389.36 155.83, 389.36 279.66, 389.36 401.11 M389.36 32 C389.36 158.55, 389.36 285.1, 389.36 401.11 M389.36 401.11 C389.36 422.44, 378.7 433.11, 357.36 433.11 M389.36 401.11 C389.36 422.44, 378.7 433.11, 357.36 433.11 M357.36 433.11 C281.86 433.11, 206.35 433.11, 32 433.11 M357.36 433.11 C257.87 433.11, 158.38 433.11, 32 433.11 M32 433.11 C10.67 433.11, 0 422.44, 0 401.11 M32 433.11 C10.67 433.11, 0 422.44, 0 401.11 M0 401.11 C0 261.97, 0 122.83, 0 32 M0 401.11 C0 253.73, 0 106.34, 0 32 M0 32 C0 10.67, 10.67 0, 32 0 M0 32 C0 10.67, 10.67 0, 32 0" stroke="#1e1e1e" stroke-width="2" fill="none"></path></g><g transform="translate(997.672763875524 212.03765127638667) rotate(0 19.453125 11.5)"><text x="0" y="16.900390625" font-family="Helvetica, Segoe UI Emoji" font-size="20px" fill="#1e1e1e" text-anchor="start" style="white-space: pre;" direction="ltr" dominant-baseline="alphabetic">npm</text></g><g stroke-linecap="round" transform="translate(989.7613891782471 263.9340825334491) rotate(0 166.82613515155936 44.973002166108984)"><path d="M22.49 0 C132.75 0, 243.01 0, 311.17 0 M22.49 0 C110.06 0, 197.64 0, 311.17 0 M311.17 0 C326.16 0, 333.65 7.5, 333.65 22.49 M311.17 0 C326.16 0, 333.65 7.5, 333.65 22.49 M333.65 22.49 C333.65 39.99, 333.65 57.5, 333.65 67.46 M333.65 22.49 C333.65 39.98, 333.65 57.48, 333.65 67.46 M333.65 67.46 C333.65 82.45, 326.16 89.95, 311.17 89.95 M333.65 67.46 C333.65 82.45, 326.16 89.95, 311.17 89.95 M311.17 89.95 C219.85 89.95, 128.53 89.95, 22.49 89.95 M311.17 89.95 C214.44 89.95, 117.72 89.95, 22.49 89.95 M22.49 89.95 C7.5 89.95, 0 82.45, 0 67.46 M22.49 89.95 C7.5 89.95, 0 82.45, 0 67.46 M0 67.46 C0 57.05, 0 46.64, 0 22.49 M0 67.46 C0 51.23, 0 34.99, 0 22.49 M0 22.49 C0 7.5, 7.5 0, 22.49 0 M0 22.49 C0 7.5, 7.5 0, 22.49 0" stroke="#1e1e1e" stroke-width="2" fill="none"></path></g><g transform="translate(1083.2867430798065 297.4070846995581) rotate(0 73.30078125 11.5)"><text x="73.30078125" y="16.900390625" font-family="Helvetica, Segoe UI Emoji" font-size="20px" fill="#1e1e1e" text-anchor="middle" style="white-space: pre;" direction="ltr" dominant-baseline="alphabetic">@taptap/proto-a</text></g><g stroke-linecap="round" transform="translate(989.909776265363 378.4537694767051) rotate(0 166.82613515155936 44.973002166108984)"><path d="M22.49 0 C113.09 0, 203.68 0, 311.17 0 M22.49 0 C123.47 0, 224.46 0, 311.17 0 M311.17 0 C326.16 0, 333.65 7.5, 333.65 22.49 M311.17 0 C326.16 0, 333.65 7.5, 333.65 22.49 M333.65 22.49 C333.65 36.52, 333.65 50.55, 333.65 67.46 M333.65 22.49 C333.65 40.37, 333.65 58.25, 333.65 67.46 M333.65 67.46 C333.65 82.45, 326.16 89.95, 311.17 89.95 M333.65 67.46 C333.65 82.45, 326.16 89.95, 311.17 89.95 M311.17 89.95 C202.86 89.95, 94.56 89.95, 22.49 89.95 M311.17 89.95 C206.65 89.95, 102.13 89.95, 22.49 89.95 M22.49 89.95 C7.5 89.95, 0 82.45, 0 67.46 M22.49 89.95 C7.5 89.95, 0 82.45, 0 67.46 M0 67.46 C0 51.45, 0 35.44, 0 22.49 M0 67.46 C0 52.69, 0 37.92, 0 22.49 M0 22.49 C0 7.5, 7.5 0, 22.49 0 M0 22.49 C0 7.5, 7.5 0, 22.49 0" stroke="#1e1e1e" stroke-width="2" fill="none"></path></g><g transform="translate(1083.6011457919224 411.92677164281406) rotate(0 73.134765625 11.5)"><text x="73.134765625" y="16.900390625" font-family="Helvetica, Segoe UI Emoji" font-size="20px" fill="#1e1e1e" text-anchor="middle" style="white-space: pre;" direction="ltr" dominant-baseline="alphabetic">@taptap/proto-b</text></g><g stroke-linecap="round" transform="translate(989.3162279169001 499.13152053526477) rotate(0 166.82613515155936 44.973002166108984)"><path d="M22.49 0 C104.26 0, 186.02 0, 311.17 0 M22.49 0 C127.06 0, 231.64 0, 311.17 0 M311.17 0 C326.16 0, 333.65 7.5, 333.65 22.49 M311.17 0 C326.16 0, 333.65 7.5, 333.65 22.49 M333.65 22.49 C333.65 39.85, 333.65 57.22, 333.65 67.46 M333.65 22.49 C333.65 32.15, 333.65 41.81, 333.65 67.46 M333.65 67.46 C333.65 82.45, 326.16 89.95, 311.17 89.95 M333.65 67.46 C333.65 82.45, 326.16 89.95, 311.17 89.95 M311.17 89.95 C230.81 89.95, 150.45 89.95, 22.49 89.95 M311.17 89.95 C224.39 89.95, 137.61 89.95, 22.49 89.95 M22.49 89.95 C7.5 89.95, 0 82.45, 0 67.46 M22.49 89.95 C7.5 89.95, 0 82.45, 0 67.46 M0 67.46 C0 58.35, 0 49.25, 0 22.49 M0 67.46 C0 54.98, 0 42.49, 0 22.49 M0 22.49 C0 7.5, 7.5 0, 22.49 0 M0 22.49 C0 7.5, 7.5 0, 22.49 0" stroke="#1e1e1e" stroke-width="2" fill="none"></path></g><g transform="translate(1083.4226365059594 532.6045227013738) rotate(0 72.7197265625 11.5)"><text x="72.7197265625" y="16.900390625" font-family="Helvetica, Segoe UI Emoji" font-size="20px" fill="#1e1e1e" text-anchor="middle" style="white-space: pre;" direction="ltr" dominant-baseline="alphabetic">@taptap/proto-c</text></g><g stroke-linecap="round"><g transform="translate(781.2408372014472 252.31150201317325) rotate(0 204.71130264208068 -100.54342388799478)"><path d="M0 0 C12.96 -30.84, 17.68 -151.51, 77.77 -185.02 C137.85 -218.53, 305.22 -221.47, 360.5 -201.09 C415.77 -180.7, 401.27 -85.78, 409.42 -62.71 M0 0 C12.96 -30.84, 17.68 -151.51, 77.77 -185.02 C137.85 -218.53, 305.22 -221.47, 360.5 -201.09 C415.77 -180.7, 401.27 -85.78, 409.42 -62.71" stroke="#1e1e1e" stroke-width="2" fill="none"></path></g><g transform="translate(781.2408372014472 252.31150201317325) rotate(0 204.71130264208068 -100.54342388799478)"><path d="M398.52 -85.21 C402.05 -77.92, 405.59 -70.63, 409.42 -62.71 M398.52 -85.21 C401.4 -79.26, 404.28 -73.32, 409.42 -62.71" stroke="#1e1e1e" stroke-width="2" fill="none"></path></g><g transform="translate(781.2408372014472 252.31150201317325) rotate(0 204.71130264208068 -100.54342388799478)"><path d="M415.53 -86.96 C413.55 -79.1, 411.57 -71.24, 409.42 -62.71 M415.53 -86.96 C413.92 -80.55, 412.3 -74.14, 409.42 -62.71" stroke="#1e1e1e" stroke-width="2" fill="none"></path></g></g><mask></mask><g transform="translate(960.2591395885618 10) rotate(0 31.689453125 11.5)"><text x="0" y="16.900390625" font-family="Helvetica, Segoe UI Emoji" font-size="20px" fill="#1e1e1e" text-anchor="start" style="white-space: pre;" direction="ltr" dominant-baseline="alphabetic">publish</text></g><g stroke-linecap="round"><g transform="translate(1332.2947487290471 314.210725524125) rotate(0 109.28877891450117 0.17927115072452438)"><path d="M0 0 C36.43 0.06, 182.15 0.3, 218.58 0.36 M0 0 C36.43 0.06, 182.15 0.3, 218.58 0.36" stroke="#1e1e1e" stroke-width="2" fill="none"></path></g><g transform="translate(1332.2947487290471 314.210725524125) rotate(0 109.28877891450117 0.17927115072452438)"><path d="M195.07 8.87 C203.39 5.86, 211.71 2.85, 218.58 0.36 M195.07 8.87 C202.01 6.36, 208.94 3.85, 218.58 0.36" stroke="#1e1e1e" stroke-width="2" fill="none"></path></g><g transform="translate(1332.2947487290471 314.210725524125) rotate(0 109.28877891450117 0.17927115072452438)"><path d="M195.1 -8.23 C203.41 -5.19, 211.72 -2.15, 218.58 0.36 M195.1 -8.23 C202.02 -5.7, 208.95 -3.16, 218.58 0.36" stroke="#1e1e1e" stroke-width="2" fill="none"></path></g></g><mask></mask><g stroke-linecap="round" transform="translate(1530.9599296577703 197.16025205300525) rotate(0 195.33438333813103 216.3610488043449)"><path d="M32 0 C152.28 0, 272.56 0, 358.67 0 M32 0 C142.42 0, 252.84 0, 358.67 0 M358.67 0 C380 0, 390.67 10.67, 390.67 32 M358.67 0 C380 0, 390.67 10.67, 390.67 32 M390.67 32 C390.67 131.83, 390.67 231.67, 390.67 400.72 M390.67 32 C390.67 120.91, 390.67 209.83, 390.67 400.72 M390.67 400.72 C390.67 422.06, 380 432.72, 358.67 432.72 M390.67 400.72 C390.67 422.06, 380 432.72, 358.67 432.72 M358.67 432.72 C272.56 432.72, 186.46 432.72, 32 432.72 M358.67 432.72 C279.58 432.72, 200.49 432.72, 32 432.72 M32 432.72 C10.67 432.72, 0 422.06, 0 400.72 M32 432.72 C10.67 432.72, 0 422.06, 0 400.72 M0 400.72 C0 291.31, 0 181.9, 0 32 M0 400.72 C0 286.69, 0 172.67, 0 32 M0 32 C0 10.67, 10.67 0, 32 0 M0 32 C0 10.67, 10.67 0, 32 0" stroke="#1e1e1e" stroke-width="2" fill="none"></path></g><g transform="translate(1564.9195833531553 211.95575149527315) rotate(0 44.7021484375 11.5)"><text x="0" y="16.900390625" font-family="Helvetica, Segoe UI Emoji" font-size="20px" fill="#1e1e1e" text-anchor="start" style="white-space: pre;" direction="ltr" dominant-baseline="alphabetic">iem-mono</text></g><g stroke-linecap="round" transform="translate(1563.9380439665556 265.11978646781597) rotate(0 164.71759534055047 47.648909976526284)"><path d="M23.82 0 C129.59 0, 235.35 0, 305.61 0 M23.82 0 C105.61 0, 187.39 0, 305.61 0 M305.61 0 C321.49 0, 329.44 7.94, 329.44 23.82 M305.61 0 C321.49 0, 329.44 7.94, 329.44 23.82 M329.44 23.82 C329.44 34.81, 329.44 45.79, 329.44 71.47 M329.44 23.82 C329.44 41.3, 329.44 58.78, 329.44 71.47 M329.44 71.47 C329.44 87.36, 321.49 95.3, 305.61 95.3 M329.44 71.47 C329.44 87.36, 321.49 95.3, 305.61 95.3 M305.61 95.3 C207.1 95.3, 108.6 95.3, 23.82 95.3 M305.61 95.3 C229.09 95.3, 152.57 95.3, 23.82 95.3 M23.82 95.3 C7.94 95.3, 0 87.36, 0 71.47 M23.82 95.3 C7.94 95.3, 0 87.36, 0 71.47 M0 71.47 C0 58.14, 0 44.81, 0 23.82 M0 71.47 C0 58, 0 44.53, 0 23.82 M0 23.82 C0 7.94, 7.94 0, 23.82 0 M0 23.82 C0 7.94, 7.94 0, 23.82 0" stroke="#1e1e1e" stroke-width="2" fill="none"></path></g><g transform="translate(1670.496459619606 301.26869644434225) rotate(0 58.1591796875 11.5)"><text x="58.1591796875" y="16.900390625" font-family="Helvetica, Segoe UI Emoji" font-size="20px" fill="#1e1e1e" text-anchor="middle" style="white-space: pre;" direction="ltr" dominant-baseline="alphabetic">project/iem-a</text></g><g stroke-linecap="round" transform="translate(1561.1583566053246 384.85552352575644) rotate(0 164.71759534055047 47.648909976526284)"><path d="M23.82 0 C85.6 0, 147.38 0, 305.61 0 M23.82 0 C115.23 0, 206.64 0, 305.61 0 M305.61 0 C321.49 0, 329.44 7.94, 329.44 23.82 M305.61 0 C321.49 0, 329.44 7.94, 329.44 23.82 M329.44 23.82 C329.44 36.11, 329.44 48.39, 329.44 71.47 M329.44 23.82 C329.44 36.1, 329.44 48.39, 329.44 71.47 M329.44 71.47 C329.44 87.36, 321.49 95.3, 305.61 95.3 M329.44 71.47 C329.44 87.36, 321.49 95.3, 305.61 95.3 M305.61 95.3 C246.78 95.3, 187.94 95.3, 23.82 95.3 M305.61 95.3 C209.08 95.3, 112.54 95.3, 23.82 95.3 M23.82 95.3 C7.94 95.3, 0 87.36, 0 71.47 M23.82 95.3 C7.94 95.3, 0 87.36, 0 71.47 M0 71.47 C0 57.14, 0 42.81, 0 23.82 M0 71.47 C0 58.33, 0 45.19, 0 23.82 M0 23.82 C0 7.94, 7.94 0, 23.82 0 M0 23.82 C0 7.94, 7.94 0, 23.82 0" stroke="#1e1e1e" stroke-width="2" fill="none"></path></g><g transform="translate(1667.882787883375 421.0044335022827) rotate(0 57.9931640625 11.5)"><text x="57.9931640625" y="16.900390625" font-family="Helvetica, Segoe UI Emoji" font-size="20px" fill="#1e1e1e" text-anchor="middle" style="white-space: pre;" direction="ltr" dominant-baseline="alphabetic">project/iem-b</text></g><g stroke-linecap="round"><g transform="translate(1332.7935638271551 426.37960819830323) rotate(0 109.28877891450111 0.17927115072451727)"><path d="M0 0 C36.43 0.06, 182.15 0.3, 218.58 0.36 M0 0 C36.43 0.06, 182.15 0.3, 218.58 0.36" stroke="#1e1e1e" stroke-width="2" fill="none"></path></g><g transform="translate(1332.7935638271551 426.37960819830323) rotate(0 109.28877891450111 0.17927115072451727)"><path d="M195.07 8.87 C200.15 7.03, 205.22 5.2, 218.58 0.36 M195.07 8.87 C201.61 6.5, 208.16 4.13, 218.58 0.36" stroke="#1e1e1e" stroke-width="2" fill="none"></path></g><g transform="translate(1332.7935638271551 426.37960819830323) rotate(0 109.28877891450111 0.17927115072451727)"><path d="M195.1 -8.23 C200.17 -6.38, 205.24 -4.52, 218.58 0.36 M195.1 -8.23 C201.63 -5.84, 208.17 -3.45, 218.58 0.36" stroke="#1e1e1e" stroke-width="2" fill="none"></path></g></g><mask></mask></svg>