<svg version="1.1" xmlns="http://www.w3.org/2000/svg" viewBox="0 0 1098.91682318834 691.4978193598517" width="1098.91682318834" height="691.4978193598517" class="excalidraw-svg">
  <!-- svg-source:excalidraw -->
  
  <defs>
    <style class="style-fonts">
      
    </style>
    
  </defs>
  <rect x="0" y="0" width="1098.91682318834" height="691.4978193598517" fill="#ffffff"></rect><g stroke-linecap="round" transform="translate(248.51848036320587 94.60299895413527) rotate(0 40.949788461311165 40.94978846131116)"><path d="M45.54 1.35 C52.59 1.9, 62.58 5.72, 68.17 10.31 C73.77 14.91, 77.11 21.9, 79.12 28.92 C81.14 35.94, 82.11 45.25, 80.26 52.43 C78.4 59.62, 73.4 67.33, 68 72.03 C62.6 76.73, 55.24 79.58, 47.86 80.66 C40.47 81.74, 30.64 81.37, 23.67 78.51 C16.7 75.65, 9.9 69.84, 6.03 63.48 C2.17 57.13, 0.45 47.81, 0.46 40.39 C0.48 32.97, 2.26 25.17, 6.13 18.95 C10.01 12.73, 15.49 5.84, 23.71 3.08 C31.92 0.32, 49.01 1.79, 55.42 2.37 C61.84 2.95, 62.51 5.99, 62.18 6.58 M34.38 0.72 C41.54 -1.27, 50.97 -1.27, 57.5 1.53 C64.03 4.32, 69.36 10.98, 73.59 17.47 C77.82 23.96, 82.4 33.21, 82.87 40.46 C83.35 47.7, 80.21 54.87, 76.42 60.92 C72.63 66.97, 66.96 73.36, 60.13 76.78 C53.3 80.21, 42.97 82.22, 35.42 81.46 C27.86 80.69, 20.56 76.73, 14.8 72.2 C9.03 67.67, 3.09 61, 0.83 54.28 C-1.43 47.56, -0.58 39.27, 1.24 31.87 C3.07 24.47, 6.42 14.97, 11.79 9.9 C17.15 4.83, 29.57 2.93, 33.44 1.46 C37.31 0, 34.88 0.8, 34.99 1.1" stroke="none" stroke-width="0" fill="white"></path><path d="M53.69 1.29 C60.54 2.86, 67.94 8.79, 72.54 14.59 C77.15 20.4, 80.47 28.57, 81.32 36.13 C82.17 43.7, 80.89 53.18, 77.65 59.99 C74.4 66.8, 68.29 73.25, 61.86 76.98 C55.43 80.72, 46.37 82.7, 39.08 82.42 C31.79 82.15, 24.02 79.65, 18.14 75.33 C12.26 71.01, 6.64 63.51, 3.79 56.49 C0.94 49.47, -0.02 40.46, 1.05 33.2 C2.11 25.95, 5.18 18.39, 10.18 12.98 C15.18 7.56, 22.44 1.97, 31.04 0.7 C39.64 -0.58, 55.69 3.58, 61.77 5.31 C67.85 7.04, 67.86 10.31, 67.54 11.09 M33.98 0.96 C40.78 -0.84, 49.67 0.06, 56.7 3.09 C63.72 6.12, 71.77 12.74, 76.16 19.15 C80.56 25.57, 83.43 34.02, 83.08 41.55 C82.74 49.09, 78.33 58.4, 74.09 64.37 C69.85 70.34, 64.22 74.6, 57.65 77.36 C51.08 80.13, 41.95 82.1, 34.67 80.95 C27.38 79.8, 19.7 75.25, 13.96 70.46 C8.21 65.68, 2.01 59.25, 0.2 52.24 C-1.61 45.23, 0.74 35.33, 3.08 28.39 C5.43 21.44, 9.17 15.23, 14.28 10.59 C19.39 5.94, 30.21 2.09, 33.73 0.51 C37.25 -1.07, 34.93 0.26, 35.41 1.1" stroke="#000000" stroke-width="1" fill="none"></path></g><g stroke-linecap="round" transform="translate(275.861225778278 109.83617999314811) rotate(0 14.523151962772985 14.523151962772985)"><path d="M15.09 0.3 C18.12 0.13, 22.07 1.73, 24.41 3.67 C26.75 5.6, 28.79 8.79, 29.15 11.92 C29.51 15.05, 28.16 19.69, 26.58 22.46 C25 25.23, 22.6 27.6, 19.65 28.53 C16.7 29.46, 11.83 29.17, 8.86 28.05 C5.88 26.92, 3.23 24.45, 1.79 21.77 C0.35 19.1, -0.43 15.14, 0.22 11.99 C0.87 8.85, 3.26 4.87, 5.69 2.88 C8.12 0.9, 13.23 0.51, 14.81 0.08 C16.38 -0.34, 15.07 0.2, 15.15 0.35 M13.39 0.07 C16.34 -0.36, 20.82 0.51, 23.26 2.36 C25.7 4.2, 27.42 8.02, 28.04 11.13 C28.65 14.25, 28.38 18.29, 26.96 21.04 C25.53 23.78, 22.2 26.39, 19.47 27.61 C16.74 28.83, 13.36 29.36, 10.58 28.35 C7.8 27.33, 4.62 24.14, 2.82 21.51 C1.01 18.89, -0.68 15.46, -0.27 12.61 C0.15 9.75, 2.91 6.55, 5.29 4.4 C7.67 2.25, 12.53 0.43, 14.03 -0.31 C15.53 -1.05, 14.4 -0.29, 14.27 -0.02" stroke="none" stroke-width="0" fill="black"></path><path d="M14.24 -0.42 C17.19 -0.6, 21.18 0.92, 23.62 3.02 C26.07 5.12, 28.3 9.01, 28.9 12.19 C29.51 15.36, 28.81 19.37, 27.24 22.07 C25.67 24.78, 22.34 27.33, 19.47 28.43 C16.59 29.52, 12.84 29.72, 9.99 28.63 C7.14 27.54, 3.96 24.66, 2.36 21.88 C0.76 19.1, 0 15.01, 0.39 11.94 C0.77 8.88, 2.24 5.52, 4.66 3.49 C7.08 1.46, 13.08 0.28, 14.9 -0.26 C16.71 -0.79, 15.54 -0.06, 15.56 0.26 M16 0.55 C18.73 0.84, 22.59 2.85, 24.65 5.02 C26.71 7.2, 28.07 10.53, 28.36 13.61 C28.65 16.7, 28.06 20.98, 26.37 23.54 C24.68 26.09, 21.42 28.23, 18.21 28.97 C15.01 29.71, 10.02 29.55, 7.14 27.99 C4.27 26.42, 2.08 22.62, 0.97 19.6 C-0.13 16.58, -0.45 12.86, 0.5 9.85 C1.46 6.84, 4.16 3.2, 6.71 1.56 C9.25 -0.07, 14.01 0.32, 15.75 0.05 C17.49 -0.22, 17.03 -0.36, 17.13 -0.05" stroke="#000000" stroke-width="1" fill="none"></path></g><g stroke-linecap="round"><g transform="translate(261.5221041452942 157.4958721068183) rotate(0 28.264776173521017 -0.11013077739502819)" fill-rule="evenodd"><path d="M-0.26 0.77 C2.22 -0.84, 8.4 -5.8, 13.6 -8.5 C18.81 -11.21, 25.76 -15.55, 30.96 -15.47 C36.15 -15.38, 40.85 -10.54, 44.78 -7.99 C48.7 -5.43, 54.35 -2.95, 54.53 -0.11 C54.7 2.73, 48.87 6.53, 45.83 9.05 C42.78 11.56, 39.95 14, 36.25 14.99 C32.55 15.99, 28.31 15.71, 23.65 15.02 C19 14.33, 12.33 13.59, 8.32 10.85 C4.32 8.11, 1.11 0.53, -0.37 -1.42" stroke="none" stroke-width="0" fill="black" fill-rule="evenodd"></path><path d="M-0.02 -0.49 C1.74 -2.1, 6.8 -7.88, 11.39 -10.34 C15.98 -12.79, 21.83 -15.42, 27.51 -15.22 C33.2 -15.02, 40.56 -11.55, 45.5 -9.14 C50.44 -6.73, 56.58 -3.94, 57.14 -0.77 C57.71 2.4, 52.44 7.19, 48.87 9.89 C45.31 12.59, 40.1 14.56, 35.75 15.43 C31.4 16.3, 26.98 16.12, 22.77 15.1 C18.55 14.08, 14.32 12.01, 10.48 9.31 C6.63 6.6, 1.42 0.41, -0.3 -1.14 M-1.49 -1.79 C0.56 -3.18, 8.32 -7.02, 13.55 -9.07 C18.77 -11.13, 24.58 -14.32, 29.88 -14.13 C35.18 -13.94, 40.97 -10.24, 45.33 -7.92 C49.68 -5.61, 55.71 -3.02, 56 -0.25 C56.29 2.53, 50.27 6.27, 47.07 8.73 C43.86 11.2, 40.88 13.46, 36.75 14.54 C32.62 15.63, 26.94 16.3, 22.29 15.24 C17.64 14.17, 12.52 10.44, 8.85 8.15 C5.19 5.85, 1.7 2.66, 0.3 1.46" stroke="#000000" stroke-width="1" fill="none"></path></g></g><mask></mask><g stroke-linecap="round" transform="translate(88.19228727224817 78.06632688284162) rotate(0 35.339290345615666 53.6254093970546)"><path d="M0.12 -0.15 L71.83 1.43 L71.85 108.82 L0.53 108.42" stroke="none" stroke-width="0" fill="#fff"></path><path d="M0 0 C20.2 -1.05, 41.4 -0.71, 70.68 0 M0 0 C23.19 -0.33, 45.53 0.58, 70.68 0 M70.68 0 C72.2 41.02, 69.59 83.24, 70.68 107.25 M70.68 0 C70.01 32.45, 70.59 64.8, 70.68 107.25 M70.68 107.25 C43.55 105.18, 14.93 105.01, 0 107.25 M70.68 107.25 C53.33 107.72, 33.56 108.18, 0 107.25 M0 107.25 C-0.07 76.57, -1.21 44.27, 0 0 M0 107.25 C-0.95 76.65, -1.99 45.26, 0 0" stroke="#000000" stroke-width="2" fill="none"></path></g><g stroke-linecap="round" transform="translate(80.64485423653394 71.0462375971274) rotate(0 35.339290345615666 53.6254093970546)"><path d="M1.15 1.43 L71.85 1.57 L71.21 108.42 L-1.17 105.6" stroke="none" stroke-width="0" fill="#fff"></path><path d="M0 0 C14.25 -0.74, 30.34 1.62, 70.68 0 M0 0 C23.23 0.86, 46.21 0.89, 70.68 0 M70.68 0 C69.15 33.19, 71.05 64.95, 70.68 107.25 M70.68 0 C71.04 37.66, 71.56 73.96, 70.68 107.25 M70.68 107.25 C54.6 104.87, 36.18 107.63, 0 107.25 M70.68 107.25 C47.38 108.29, 25.6 106.91, 0 107.25 M0 107.25 C-1.46 75.78, 0.16 50, 0 0 M0 107.25 C-1.04 81.86, 0 56.25, 0 0" stroke="#000000" stroke-width="2" fill="none"></path></g><g stroke-linecap="round" transform="translate(71.24976495081859 62.7923313471274) rotate(0 35.339290345615666 53.6254093970546)"><path d="M1.17 1.57 L71.21 1.17 L69.51 105.6 L1.98 108.69" stroke="none" stroke-width="0" fill="#fff"></path><path d="M0 0 C15.64 1.49, 30.98 1.87, 70.68 0 M0 0 C20.79 0.25, 39.91 -0.16, 70.68 0 M70.68 0 C69.65 28.42, 70.58 58.71, 70.68 107.25 M70.68 0 C72.18 35.26, 70.57 71.65, 70.68 107.25 M70.68 107.25 C54.39 107.57, 40.2 108.19, 0 107.25 M70.68 107.25 C46.91 107.24, 23.21 107.47, 0 107.25 M0 107.25 C0.77 77.72, -0.27 44.56, 0 0 M0 107.25 C1.12 70.39, 1.63 34.41, 0 0" stroke="#000000" stroke-width="2" fill="none"></path></g><g stroke-linecap="round"><g transform="translate(83.23619153772955 111.53956839447983) rotate(0 23.28991792865041 -1.467583869476627)"><path d="M0.28 0.11 C7.14 0.11, 33.04 0.53, 40.81 0.06 C48.58 -0.41, 45.85 -2.24, 46.89 -2.69 M-0.24 -0.3 C6.62 -0.23, 32.76 1.25, 40.58 0.71 C48.4 0.16, 45.83 -2.83, 46.7 -3.55" stroke="#000000" stroke-width="1" fill="none"></path></g></g><mask></mask><g stroke-linecap="round"><g transform="translate(85.09144377574387 80.07428109564171) rotate(0 22.78370784033821 -1.4016489420073555)"><path d="M0.39 -0.1 C3.2 -0.52, 9.53 -2.43, 17.14 -2.4 C24.75 -2.37, 41.3 -0.29, 46.05 0.09 M-0.08 -0.63 C2.66 -1.21, 9.19 -3.14, 16.87 -3.16 C24.54 -3.19, 41.13 -1.36, 45.94 -0.76" stroke="#000000" stroke-width="1" fill="none"></path></g></g><mask></mask><g stroke-linecap="round"><g transform="translate(85.01484425937446 147.46865536599853) rotate(0 24.16834131719213 0.17504253415346227)"><path d="M0.31 0.4 C4.72 0.44, 20.67 -0.19, 26.89 0.16 C33.12 0.52, 34.11 2.95, 37.66 2.51 C41.21 2.07, 46.41 -1.74, 48.2 -2.49 M-0.2 0.13 C4.15 0.03, 20.45 -0.82, 26.71 -0.59 C32.96 -0.35, 33.75 1.82, 37.34 1.54 C40.92 1.27, 46.5 -1.7, 48.24 -2.26" stroke="#000000" stroke-width="1" fill="none"></path></g></g><mask></mask><g stroke-linecap="round"><g transform="translate(81.83079707784412 158.71180377427754) rotate(0 27.203474913921227 -0.842265525090923)"><path d="M1.05 0.91 C2.64 0.64, 7.79 -0.26, 10.26 -0.74 C12.72 -1.23, 9.81 -2.21, 15.83 -1.99 C21.85 -1.76, 40.05 0.57, 46.38 0.61 C52.7 0.65, 52.47 -1.32, 53.78 -1.74 M0.14 0.35 C1.53 -0.37, 6.9 -2.37, 9.36 -2.64 C11.82 -2.91, 8.68 -1.99, 14.9 -1.27 C21.12 -0.54, 39.89 1.67, 46.68 1.71 C53.47 1.74, 54.15 -0.32, 55.64 -1.06" stroke="#000000" stroke-width="1" fill="none"></path></g></g><mask></mask><g stroke-linecap="round"><g transform="translate(82.11563997340994 95.13488264890293) rotate(0 23.464326446472256 0.6465876758274192)"><path d="M0.04 0.19 C2.97 -0.06, 10.23 -1.4, 18.05 -1.12 C25.88 -0.83, 42.22 1.34, 46.98 1.88 M-0.6 -0.18 C2.2 -0.42, 9.67 -1.13, 17.55 -0.68 C25.43 -0.24, 41.82 2.18, 46.66 2.48" stroke="#000000" stroke-width="1" fill="none"></path></g></g><mask></mask><g stroke-linecap="round"><g transform="translate(82.22312816956031 129.61821168474216) rotate(0 23.464326446472256 0.6465876758274192)"><path d="M-0.14 -0.52 C1.21 -0.32, 5.14 1.39, 8.15 1.43 C11.15 1.46, 11.45 -0.44, 17.91 -0.34 C24.36 -0.23, 41.99 1.64, 46.87 2.06 M0.79 0.4 C2.07 0.68, 4.97 2.4, 7.74 2.12 C10.51 1.85, 10.88 -1.36, 17.41 -1.27 C23.95 -1.19, 42.08 2.02, 46.95 2.65" stroke="#000000" stroke-width="1" fill="none"></path></g></g><mask></mask><g transform="translate(223.5328046282201 126.31030227298788) rotate(0 -12.839167288730039 -0.6539662187351496)" stroke="none"><path fill="#495057" d="M -0.22,2.27 Q -0.22,2.27 -2.15,2.01 -4.09,1.74 -5.37,1.64 -6.66,1.55 -8.34,1.40 -10.02,1.26 -11.88,1.15 -13.75,1.04 -15.52,0.94 -17.29,0.85 -18.83,0.83 -20.36,0.82 -22.75,0.85 -25.14,0.88 -25.49,0.82 -25.84,0.76 -26.15,0.59 -26.46,0.42 -26.70,0.16 -26.94,-0.09 -27.09,-0.41 -27.24,-0.73 -27.27,-1.08 -27.31,-1.43 -27.23,-1.78 -27.15,-2.12 -26.97,-2.43 -26.78,-2.73 -26.51,-2.95 -26.24,-3.18 -25.91,-3.31 -25.58,-3.44 -25.23,-3.45 -24.87,-3.47 -24.53,-3.37 -24.19,-3.28 -23.90,-3.08 -23.61,-2.87 -23.40,-2.59 -23.19,-2.31 -23.08,-1.97 -22.97,-1.64 -22.97,-1.28 -22.97,-0.93 -23.09,-0.59 -23.20,-0.26 -23.42,0.01 -23.63,0.29 -23.93,0.49 -24.22,0.68 -24.57,0.77 -24.91,0.87 -25.26,0.84 -25.61,0.82 -25.94,0.69 -26.27,0.56 -26.54,0.32 -26.80,0.09 -26.98,-0.20 -27.16,-0.51 -27.24,-0.85 -27.31,-1.20 -27.27,-1.55 -27.23,-1.90 -27.08,-2.22 -26.93,-2.54 -26.68,-2.79 -26.44,-3.05 -26.12,-3.21 -25.81,-3.38 -25.46,-3.43 -25.11,-3.48 -25.11,-3.48 -25.11,-3.48 -22.69,-3.41 -20.27,-3.33 -18.68,-3.27 -17.10,-3.21 -15.37,-3.14 -13.63,-3.06 -11.67,-3.07 -9.71,-3.07 -7.94,-2.97 -6.16,-2.87 -4.92,-2.68 -3.68,-2.49 -1.73,-2.38 0.22,-2.27 0.49,-2.22 0.75,-2.16 1.00,-2.03 1.25,-1.91 1.46,-1.73 1.67,-1.56 1.83,-1.33 2.00,-1.11 2.10,-0.85 2.20,-0.60 2.24,-0.32 2.28,-0.05 2.26,0.21 2.23,0.49 2.14,0.75 2.05,1.01 1.90,1.24 1.75,1.47 1.54,1.66 1.34,1.85 1.10,1.98 0.86,2.12 0.59,2.19 0.33,2.26 0.05,2.27 -0.22,2.27 -0.22,2.27 L -0.22,2.27 Z"></path></g><g transform="translate(219.73093322099612 141.7209977438638) rotate(0 -14.836165826732497 -1.1176541308896049)" stroke="none"><path fill="#495057" d="M 0.00,2.05 Q 0.00,2.05 -4.43,1.96 -8.87,1.88 -11.99,1.66 -15.11,1.43 -16.87,1.34 -18.64,1.24 -21.13,0.87 -23.63,0.50 -26.55,-0.05 -29.48,-0.60 -29.75,-0.70 -30.02,-0.80 -30.24,-0.98 -30.46,-1.16 -30.62,-1.40 -30.77,-1.64 -30.84,-1.92 -30.91,-2.20 -30.89,-2.49 -30.86,-2.77 -30.75,-3.04 -30.64,-3.30 -30.44,-3.51 -30.25,-3.73 -30.00,-3.87 -29.75,-4.01 -29.47,-4.06 -29.19,-4.12 -28.90,-4.08 -28.62,-4.04 -28.36,-3.91 -28.11,-3.78 -27.90,-3.58 -27.70,-3.38 -27.57,-3.12 -27.45,-2.86 -27.41,-2.58 -27.37,-2.29 -27.42,-2.01 -27.48,-1.73 -27.62,-1.48 -27.76,-1.23 -27.98,-1.04 -28.19,-0.85 -28.45,-0.73 -28.72,-0.62 -29.00,-0.60 -29.29,-0.58 -29.57,-0.65 -29.85,-0.72 -30.09,-0.87 -30.33,-1.03 -30.51,-1.25 -30.69,-1.47 -30.79,-1.74 -30.88,-2.01 -30.89,-2.30 -30.90,-2.59 -30.81,-2.86 -30.73,-3.13 -30.56,-3.37 -30.39,-3.60 -30.16,-3.77 -29.93,-3.93 -29.65,-4.02 -29.38,-4.10 -29.09,-4.09 -28.81,-4.08 -28.81,-4.08 -28.81,-4.08 -26.01,-3.42 -23.22,-2.76 -20.80,-2.52 -18.39,-2.28 -16.66,-2.13 -14.94,-1.97 -11.91,-1.90 -8.88,-1.83 -4.44,-1.94 -0.00,-2.05 0.24,-2.02 0.48,-1.99 0.71,-1.91 0.95,-1.82 1.15,-1.68 1.35,-1.54 1.52,-1.35 1.68,-1.17 1.80,-0.95 1.92,-0.73 1.98,-0.49 2.04,-0.25 2.04,-0.00 2.04,0.24 1.98,0.48 1.92,0.72 1.80,0.94 1.69,1.16 1.53,1.34 1.36,1.53 1.16,1.67 0.96,1.81 0.72,1.90 0.49,1.99 0.25,2.02 0.00,2.05 0.00,2.05 L 0.00,2.05 Z"></path></g><g transform="translate(207.20581750623512 111.57204664284563) rotate(0 -13.059003390508337 25.253441271502197)" stroke="none"><path fill="#495057" d="M 0.85,1.82 Q 0.85,1.82 -0.57,2.52 -2.00,3.22 -3.93,4.13 -5.86,5.05 -7.75,6.29 -9.65,7.54 -11.94,9.40 -14.24,11.26 -16.36,13.09 -18.49,14.92 -19.94,16.27 -21.38,17.61 -22.19,18.68 -23.00,19.75 -23.48,20.81 -23.96,21.86 -22.46,23.05 -20.97,24.24 -20.02,25.18 -19.07,26.13 -17.09,28.70 -15.11,31.26 -13.42,33.69 -11.73,36.12 -9.44,39.03 -7.16,41.94 -5.28,43.74 -3.40,45.55 -1.82,47.08 -0.24,48.61 -0.08,48.84 0.07,49.08 0.14,49.35 0.22,49.63 0.20,49.91 0.18,50.20 0.08,50.46 -0.02,50.73 -0.20,50.94 -0.39,51.16 -0.63,51.31 -0.88,51.45 -1.16,51.51 -1.44,51.57 -1.72,51.54 -2.00,51.51 -2.26,51.39 -2.52,51.27 -2.73,51.07 -2.93,50.88 -3.06,50.63 -3.20,50.37 -3.24,50.09 -3.29,49.81 -3.24,49.53 -3.19,49.25 -3.06,49.00 -2.93,48.74 -2.72,48.55 -2.51,48.35 -2.25,48.23 -1.99,48.11 -1.71,48.08 -1.43,48.05 -1.15,48.12 -0.87,48.18 -0.63,48.33 -0.38,48.47 -0.20,48.69 -0.01,48.91 0.08,49.17 0.19,49.44 0.20,49.72 0.22,50.01 0.14,50.28 0.06,50.56 -0.09,50.79 -0.25,51.03 -0.48,51.20 -0.70,51.37 -0.98,51.46 -1.25,51.55 -1.53,51.55 -1.82,51.55 -2.09,51.46 -2.36,51.37 -2.58,51.20 -2.81,51.02 -2.81,51.02 -2.81,51.02 -4.17,49.43 -5.53,47.85 -7.64,45.95 -9.74,44.05 -12.18,41.15 -14.61,38.26 -16.44,35.95 -18.27,33.63 -20.19,31.27 -22.12,28.91 -22.99,27.87 -23.86,26.82 -25.83,24.43 -27.80,22.04 -27.65,20.95 -27.51,19.87 -26.55,18.68 -25.59,17.49 -24.53,16.43 -23.47,15.36 -21.99,14.00 -20.51,12.64 -18.41,10.72 -16.30,8.80 -13.96,6.76 -11.61,4.73 -9.61,3.25 -7.61,1.77 -5.68,0.63 -3.76,-0.50 -2.30,-1.16 -0.85,-1.82 -0.62,-1.90 -0.39,-1.97 -0.15,-1.99 0.08,-2.01 0.32,-1.97 0.56,-1.93 0.79,-1.83 1.01,-1.74 1.20,-1.59 1.40,-1.45 1.55,-1.26 1.70,-1.07 1.81,-0.85 1.91,-0.63 1.96,-0.39 2.01,-0.15 1.99,0.08 1.98,0.32 1.92,0.56 1.85,0.79 1.73,1.00 1.60,1.21 1.43,1.39 1.27,1.56 1.06,1.69 0.85,1.82 0.85,1.82 L 0.85,1.82 Z"></path></g><g transform="translate(324.40331717798074 311.9017034870367) rotate(0 13.873580932617188 15.013743541359212)"><text x="0" y="21.419607452339143" font-family="Local Font, Segoe UI Emoji" font-size="25.022905902265354px" fill="#495057" text-anchor="start" style="white-space: pre;" direction="ltr" dominant-baseline="alphabetic">x2</text></g><g transform="translate(369.237956052208 135.48366980743867) rotate(0 48.56798201799393 9.599999999999994)"><text x="0" y="13.696" font-family="Local Font, Segoe UI Emoji" font-size="16px" fill="#495057" text-anchor="start" style="white-space: pre;" direction="ltr" dominant-baseline="alphabetic">每天提交 1 次</text></g><g stroke-linecap="round" transform="translate(10 10) rotate(0 260.8614378525835 101.81224615538304)"><path d="M0 0 C208.94 0.64, 417.28 0.58, 521.72 0 M0 0 C134.22 -0.23, 267.48 -0.05, 521.72 0 M521.72 0 C520.05 57.85, 519.03 114.25, 521.72 203.62 M521.72 0 C523.47 59.3, 522.54 117.89, 521.72 203.62 M521.72 203.62 C362.74 205.29, 203.25 205.03, 0 203.62 M521.72 203.62 C335.12 202.19, 147.95 201.5, 0 203.62 M0 203.62 C0.04 145.24, 1.38 84.05, 0 0 M0 203.62 C-0.22 156.02, -1.13 107.45, 0 0" stroke="#495057" stroke-width="1" fill="none"></path></g><g transform="translate(522.401965147649 93.29173340646685) rotate(89.43486580238388 37.871986389160156 9.599999999999994)"><text x="0" y="13.696" font-family="Local Font, Segoe UI Emoji" font-size="16px" fill="#495057" text-anchor="start" style="white-space: pre;" direction="ltr" dominant-baseline="alphabetic">构建量为 1</text></g><g stroke-linecap="round" transform="translate(251.11202705540904 333.7752513844089) rotate(0 40.949788461311165 40.949788461311165)"><path d="M30.92 1.54 C37.43 -0.93, 45.86 0.2, 52.69 2.22 C59.52 4.24, 67.12 8.13, 71.9 13.64 C76.69 19.16, 80.5 27.96, 81.41 35.3 C82.32 42.63, 80.49 50.9, 77.36 57.65 C74.22 64.39, 68.68 71.86, 62.58 75.78 C56.49 79.71, 48.31 81.33, 40.77 81.22 C33.24 81.1, 23.53 78.91, 17.39 75.1 C11.25 71.29, 6.79 65.12, 3.93 58.35 C1.07 51.58, -0.68 41.99, 0.24 34.47 C1.16 26.96, 4.25 18.73, 9.46 13.26 C14.68 7.8, 27.77 3.44, 31.54 1.67 C35.3 -0.09, 31.79 2.01, 32.05 2.67 M49.37 0.03 C56.61 1.21, 65.88 6.81, 71.12 12.39 C76.36 17.97, 79.73 26.41, 80.79 33.5 C81.86 40.59, 80.2 48.23, 77.52 54.91 C74.84 61.59, 70.45 68.91, 64.71 73.57 C58.96 78.23, 50.44 82.59, 43.04 82.87 C35.64 83.15, 26.57 79.29, 20.31 75.26 C14.05 71.24, 8.92 65.27, 5.46 58.71 C2 52.16, -0.94 43.15, -0.44 35.93 C0.06 28.72, 3.95 21.26, 8.47 15.43 C12.98 9.6, 19.85 3.17, 26.66 0.96 C33.46 -1.26, 45.36 1.96, 49.31 2.14 C53.25 2.33, 50.18 1.64, 50.33 2.08" stroke="none" stroke-width="0" fill="white"></path><path d="M50.96 0.32 C58.01 1.26, 66.46 7.1, 71.4 12.55 C76.33 17.99, 79.38 25.71, 80.58 32.97 C81.78 40.23, 81.42 49.38, 78.62 56.11 C75.82 62.84, 69.75 68.91, 63.78 73.36 C57.81 77.8, 50.1 82.27, 42.78 82.79 C35.46 83.3, 26.14 80.47, 19.84 76.46 C13.54 72.45, 8.24 65.28, 4.98 58.72 C1.71 52.16, -0.36 44.19, 0.26 37.1 C0.88 30.02, 4.02 21.91, 8.69 16.2 C13.36 10.49, 20.8 5.2, 28.28 2.84 C35.76 0.47, 49.09 2.05, 53.58 2.02 C58.08 1.99, 55.72 1.88, 55.25 2.65 M55.21 2.47 C61.92 4.63, 69.77 10.27, 74.31 16.38 C78.84 22.49, 82.17 31.92, 82.41 39.14 C82.64 46.36, 79.32 53.58, 75.7 59.7 C72.08 65.83, 66.98 72.11, 60.7 75.9 C54.42 79.7, 45.64 82.89, 38 82.48 C30.36 82.07, 20.83 77.97, 14.87 73.45 C8.91 68.93, 4.76 62.24, 2.24 55.37 C-0.28 48.51, -1.81 39.75, -0.23 32.27 C1.35 24.79, 6.5 15.85, 11.7 10.51 C16.91 5.17, 23.83 1.64, 30.97 0.23 C38.11 -1.18, 50.71 1.65, 54.55 2.06 C58.4 2.46, 53.97 1.92, 54.04 2.65" stroke="#000000" stroke-width="1" fill="none"></path></g><g stroke-linecap="round" transform="translate(278.454772470481 349.00843242342125) rotate(0 14.523151962772985 14.523151962772985)"><path d="M12.04 0.61 C14.88 -0.18, 18.63 0.14, 21.33 1.69 C24.03 3.25, 27.02 6.95, 28.23 9.93 C29.44 12.9, 29.71 16.66, 28.59 19.55 C27.48 22.45, 24.35 25.84, 21.54 27.3 C18.73 28.76, 14.8 28.94, 11.75 28.32 C8.71 27.7, 5.3 25.97, 3.29 23.59 C1.29 21.21, -0.31 17.1, -0.28 14.03 C-0.26 10.96, 1.29 7.55, 3.45 5.18 C5.6 2.81, 11.17 0.61, 12.66 -0.19 C14.15 -0.98, 12.37 0.04, 12.4 0.42 M13.23 0.22 C16.23 -0.13, 20.76 0.37, 23.45 2.28 C26.14 4.19, 28.61 8.5, 29.36 11.66 C30.11 14.82, 29.55 18.63, 27.95 21.26 C26.35 23.88, 22.79 26.29, 19.77 27.4 C16.76 28.51, 12.69 28.73, 9.85 27.91 C7 27.08, 4.37 24.92, 2.71 22.45 C1.05 19.99, -0.28 16.28, -0.11 13.1 C0.06 9.92, 1.46 5.64, 3.74 3.4 C6.01 1.15, 11.9 0.06, 13.56 -0.36 C15.21 -0.79, 13.65 0.61, 13.66 0.83" stroke="none" stroke-width="0" fill="black"></path><path d="M17.77 0.21 C20.63 0.65, 23.72 2.89, 25.57 5.32 C27.42 7.76, 28.97 11.77, 28.87 14.82 C28.77 17.87, 27.01 21.21, 24.98 23.63 C22.94 26.05, 19.72 28.79, 16.67 29.35 C13.61 29.9, 9.28 28.74, 6.66 26.96 C4.05 25.18, 1.92 21.63, 0.98 18.69 C0.04 15.74, -0.06 12.04, 1.03 9.28 C2.12 6.51, 4.61 3.49, 7.51 2.07 C10.41 0.65, 16.51 0.91, 18.44 0.74 C20.37 0.57, 19.17 0.91, 19.1 1.05 M11.97 -0.44 C14.69 -1.33, 18.59 0.06, 21.3 1.65 C24.02 3.23, 27.04 6.08, 28.26 9.06 C29.48 12.05, 29.73 16.67, 28.63 19.55 C27.52 22.44, 24.29 24.91, 21.62 26.38 C18.94 27.85, 15.55 28.69, 12.57 28.38 C9.59 28.08, 5.96 26.81, 3.74 24.56 C1.52 22.31, -0.59 18.03, -0.72 14.88 C-0.85 11.73, 1 8.07, 2.95 5.66 C4.89 3.24, 9.54 1.33, 10.95 0.37 C12.36 -0.59, 11.39 -0.28, 11.42 -0.11" stroke="#000000" stroke-width="1" fill="none"></path></g><g stroke-linecap="round"><g transform="translate(264.11565083749724 396.6681245370919) rotate(0 28.264776173521017 -0.1101307773950424)" fill-rule="evenodd"><path d="M0.65 1.43 C2.25 -0.86, 5.97 -9.43, 11.02 -11.84 C16.07 -14.25, 24.83 -13.02, 30.95 -13.02 C37.06 -13.01, 43.48 -13.77, 47.71 -11.8 C51.93 -9.84, 56.1 -4.87, 56.29 -1.25 C56.48 2.37, 52.24 7.01, 48.86 9.92 C45.49 12.83, 40.9 15.75, 36.07 16.2 C31.23 16.65, 24.08 14.11, 19.86 12.61 C15.64 11.11, 14.02 9.11, 10.73 7.19 C7.44 5.28, 2.3 2.38, 0.12 1.13" stroke="none" stroke-width="0" fill="black" fill-rule="evenodd"></path><path d="M0.95 0.41 C2.76 -1.1, 6.87 -6.21, 11.43 -8.85 C16 -11.5, 22.58 -15.32, 28.34 -15.48 C34.1 -15.63, 41.32 -12, 46 -9.77 C50.69 -7.54, 56.3 -5.41, 56.44 -2.11 C56.59 1.18, 50.26 7.32, 46.88 9.98 C43.51 12.63, 40.38 13.02, 36.2 13.81 C32.02 14.59, 26.28 15.51, 21.78 14.7 C17.28 13.89, 12.82 11.43, 9.2 8.97 C5.58 6.5, 1.49 1.26, 0.07 -0.09 M-0.02 -0.42 C2.11 -2.27, 9.03 -8.12, 13.62 -10.47 C18.2 -12.82, 22.06 -14.79, 27.47 -14.52 C32.89 -14.26, 41.52 -10.92, 46.1 -8.89 C50.67 -6.85, 54.66 -5.26, 54.93 -2.3 C55.19 0.66, 51.22 5.87, 47.69 8.87 C44.17 11.88, 38.26 14.77, 33.77 15.73 C29.29 16.69, 24.66 15.98, 20.79 14.63 C16.92 13.28, 13.89 10.17, 10.57 7.63 C7.25 5.09, 2.41 0.91, 0.87 -0.59" stroke="#000000" stroke-width="1" fill="none"></path></g></g><mask></mask><g stroke-linecap="round" transform="translate(90.78583396445129 317.2385793131152) rotate(0 35.339290345615666 53.625409397054604)"><path d="M-1.38 -0.98 L72.06 0.01 L72.26 105.3 L-1.08 107.45" stroke="none" stroke-width="0" fill="#fff"></path><path d="M0 0 C28.39 0.29, 52.4 0.11, 70.68 0 M0 0 C17.81 0.54, 38.45 0.02, 70.68 0 M70.68 0 C71.28 32.86, 70.98 66.64, 70.68 107.25 M70.68 0 C71.57 40.41, 70.73 78.83, 70.68 107.25 M70.68 107.25 C40.47 107.46, 14.07 108.34, 0 107.25 M70.68 107.25 C49.24 107.08, 29.48 107.04, 0 107.25 M0 107.25 C-0.79 74.15, -0.21 40.28, 0 0 M0 107.25 C-0.66 73.71, -0.28 40.7, 0 0" stroke="#000000" stroke-width="2" fill="none"></path></g><g stroke-linecap="round" transform="translate(83.23840092873706 310.21849002740055) rotate(0 35.339290345615666 53.625409397054604)"><path d="M1.38 0.01 L72.26 -1.95 L69.6 107.45 L1.35 108.99" stroke="none" stroke-width="0" fill="#fff"></path><path d="M0 0 C14.1 -0.38, 29.83 -0.04, 70.68 0 M0 0 C15.66 -0.55, 29.52 0.5, 70.68 0 M70.68 0 C70.6 22.74, 72.18 44.36, 70.68 107.25 M70.68 0 C70.38 39.76, 71.95 81.89, 70.68 107.25 M70.68 107.25 C45.21 107.86, 19.98 107.99, 0 107.25 M70.68 107.25 C44.87 106.11, 18.83 107.26, 0 107.25 M0 107.25 C0.44 83.92, 0.33 63.27, 0 0 M0 107.25 C0.45 84.8, 0.29 62.6, 0 0" stroke="#000000" stroke-width="2" fill="none"></path></g><g stroke-linecap="round" transform="translate(73.8433116430217 301.96458377740055) rotate(0 35.339290345615666 53.625409397054604)"><path d="M1.58 -1.95 L69.6 0.2 L72.03 108.99 L0.12 106.4" stroke="none" stroke-width="0" fill="#fff"></path><path d="M0 0 C19.43 0.03, 38.42 -1.74, 70.68 0 M0 0 C20.5 0.87, 39.91 0.51, 70.68 0 M70.68 0 C72.02 33.97, 72.16 66.13, 70.68 107.25 M70.68 0 C71.04 39.16, 70.63 75.88, 70.68 107.25 M70.68 107.25 C50.01 108.3, 30.99 105.97, 0 107.25 M70.68 107.25 C54.06 107.22, 36.37 106.62, 0 107.25 M0 107.25 C0.02 76.78, -2.03 45.46, 0 0 M0 107.25 C-0.11 79.49, 1.26 52.71, 0 0" stroke="#000000" stroke-width="2" fill="none"></path></g><g stroke-linecap="round"><g transform="translate(85.82973822993267 350.711820824753) rotate(0 23.28991792865041 -1.467583869476627)"><path d="M-0.04 -0.5 C6.63 -0.46, 32.04 0.59, 39.9 0.1 C47.75 -0.39, 45.97 -2.94, 47.09 -3.44 M-0.72 0.43 C6.12 0.58, 32.91 1.34, 40.86 0.77 C48.82 0.19, 46.03 -2.24, 47.01 -3.01" stroke="#000000" stroke-width="1" fill="none"></path></g></g><mask></mask><g stroke-linecap="round"><g transform="translate(87.68499046794682 319.24653352591486) rotate(0 22.78370784033821 -1.40164894200736)"><path d="M-0.53 -0.06 C2.37 -0.5, 9.66 -3.14, 17.35 -3.15 C25.03 -3.15, 40.98 -0.57, 45.6 -0.09 M0.21 -0.56 C3.08 -0.9, 9.67 -2.55, 17.18 -2.63 C24.69 -2.7, 40.65 -1.51, 45.26 -1.04" stroke="#000000" stroke-width="1" fill="none"></path></g></g><mask></mask><g stroke-linecap="round"><g transform="translate(87.60839095157758 386.6409077962717) rotate(0 24.16834131719213 0.17504253415346227)"><path d="M0.51 -0.34 C5.01 -0.34, 20.35 -0.47, 26.44 -0.02 C32.54 0.43, 33.42 2.69, 37.08 2.35 C40.73 2.02, 46.44 -1.35, 48.37 -2.01 M0.11 0.67 C4.58 0.52, 19.69 -1.25, 26.03 -0.86 C32.36 -0.48, 34.37 3.09, 38.12 2.97 C41.86 2.86, 46.83 -0.83, 48.5 -1.53" stroke="#000000" stroke-width="1" fill="none"></path></g></g><mask></mask><g stroke-linecap="round"><g transform="translate(84.42434377004724 397.8840562045507) rotate(0 27.203474913921227 -0.8422655250909372)"><path d="M0.06 0.52 C1.37 0.46, 6.29 -0.84, 8.98 -1.08 C11.67 -1.32, 9.87 -1.36, 16.2 -0.93 C22.53 -0.51, 40.46 1.54, 46.95 1.47 C53.43 1.4, 53.82 -0.85, 55.11 -1.36 M-1.36 -0.26 C0.2 -0.04, 8.27 0.4, 11.07 0.5 C13.88 0.6, 9.39 0.52, 15.47 0.33 C21.55 0.14, 41.13 -0.5, 47.56 -0.64 C53.98 -0.77, 53.16 -0.2, 54.01 -0.47" stroke="#000000" stroke-width="1" fill="none"></path></g></g><mask></mask><g stroke-linecap="round"><g transform="translate(84.70918666561306 334.3071350791761) rotate(0 23.464326446472256 0.6465876758274156)"><path d="M-0.54 0.04 C2.49 -0.11, 10.26 -1.01, 18.23 -0.63 C26.19 -0.26, 42.41 1.79, 47.24 2.28 M0.18 -0.42 C3.14 -0.49, 10 -0.26, 17.81 0.04 C25.62 0.35, 42.1 1.19, 47.06 1.41" stroke="#000000" stroke-width="1" fill="none"></path></g></g><mask></mask><g stroke-linecap="round"><g transform="translate(84.81667486176343 368.7904641150153) rotate(0 23.464326446472256 0.6465876758274156)"><path d="M0.03 -0.04 C1.52 0.25, 5.33 1.84, 8.41 1.82 C11.49 1.8, 12.07 -0.22, 18.52 -0.16 C24.96 -0.1, 42.39 1.94, 47.07 2.21 M-0.62 -0.54 C0.88 -0.4, 4.98 1.13, 8.14 1.06 C11.3 0.98, 11.81 -1.03, 18.33 -1 C24.85 -0.98, 42.41 0.81, 47.26 1.21" stroke="#000000" stroke-width="1" fill="none"></path></g></g><mask></mask><g transform="translate(226.12635132042328 365.4825547032606) rotate(0 -12.839167288730039 -0.6539662187351496)" stroke="none"><path fill="#495057" d="M -0.22,2.27 Q -0.22,2.27 -2.15,2.01 -4.09,1.74 -5.37,1.64 -6.66,1.55 -8.34,1.40 -10.02,1.26 -11.88,1.15 -13.75,1.04 -15.52,0.94 -17.29,0.85 -18.83,0.83 -20.36,0.82 -22.75,0.85 -25.14,0.88 -25.49,0.82 -25.84,0.76 -26.15,0.59 -26.46,0.42 -26.70,0.16 -26.94,-0.09 -27.09,-0.41 -27.24,-0.73 -27.27,-1.08 -27.31,-1.43 -27.23,-1.78 -27.15,-2.12 -26.97,-2.43 -26.78,-2.73 -26.51,-2.95 -26.24,-3.18 -25.91,-3.31 -25.58,-3.44 -25.23,-3.45 -24.87,-3.47 -24.53,-3.37 -24.19,-3.28 -23.90,-3.08 -23.61,-2.87 -23.40,-2.59 -23.19,-2.31 -23.08,-1.97 -22.97,-1.64 -22.97,-1.28 -22.97,-0.93 -23.09,-0.59 -23.20,-0.26 -23.42,0.01 -23.63,0.29 -23.93,0.49 -24.22,0.68 -24.57,0.77 -24.91,0.87 -25.26,0.84 -25.61,0.82 -25.94,0.69 -26.27,0.56 -26.54,0.32 -26.80,0.09 -26.98,-0.20 -27.16,-0.51 -27.24,-0.85 -27.31,-1.20 -27.27,-1.55 -27.23,-1.90 -27.08,-2.22 -26.93,-2.54 -26.68,-2.79 -26.44,-3.05 -26.12,-3.21 -25.81,-3.38 -25.46,-3.43 -25.11,-3.48 -25.11,-3.48 -25.11,-3.48 -22.69,-3.41 -20.27,-3.33 -18.68,-3.27 -17.10,-3.21 -15.37,-3.14 -13.63,-3.06 -11.67,-3.07 -9.71,-3.07 -7.94,-2.97 -6.16,-2.87 -4.92,-2.68 -3.68,-2.49 -1.73,-2.38 0.22,-2.27 0.49,-2.22 0.75,-2.16 1.00,-2.03 1.25,-1.91 1.46,-1.73 1.67,-1.56 1.83,-1.33 2.00,-1.11 2.10,-0.85 2.20,-0.60 2.24,-0.32 2.28,-0.05 2.26,0.21 2.23,0.49 2.14,0.75 2.05,1.01 1.90,1.24 1.75,1.47 1.54,1.66 1.34,1.85 1.10,1.98 0.86,2.12 0.59,2.19 0.33,2.26 0.05,2.27 -0.22,2.27 -0.22,2.27 L -0.22,2.27 Z"></path></g><g transform="translate(222.32447991319918 380.8932501741374) rotate(0 -14.836165826732497 -1.1176541308896049)" stroke="none"><path fill="#495057" d="M 0.00,2.05 Q 0.00,2.05 -4.43,1.96 -8.87,1.88 -11.99,1.66 -15.11,1.43 -16.87,1.34 -18.64,1.24 -21.13,0.87 -23.63,0.50 -26.55,-0.05 -29.48,-0.60 -29.75,-0.70 -30.02,-0.80 -30.24,-0.98 -30.46,-1.16 -30.62,-1.40 -30.77,-1.64 -30.84,-1.92 -30.91,-2.20 -30.89,-2.49 -30.86,-2.77 -30.75,-3.04 -30.64,-3.30 -30.44,-3.51 -30.25,-3.73 -30.00,-3.87 -29.75,-4.01 -29.47,-4.06 -29.19,-4.12 -28.90,-4.08 -28.62,-4.04 -28.36,-3.91 -28.11,-3.78 -27.90,-3.58 -27.70,-3.38 -27.57,-3.12 -27.45,-2.86 -27.41,-2.58 -27.37,-2.29 -27.42,-2.01 -27.48,-1.73 -27.62,-1.48 -27.76,-1.23 -27.98,-1.04 -28.19,-0.85 -28.45,-0.73 -28.72,-0.62 -29.00,-0.60 -29.29,-0.58 -29.57,-0.65 -29.85,-0.72 -30.09,-0.87 -30.33,-1.03 -30.51,-1.25 -30.69,-1.47 -30.79,-1.74 -30.88,-2.01 -30.89,-2.30 -30.90,-2.59 -30.81,-2.86 -30.73,-3.13 -30.56,-3.37 -30.39,-3.60 -30.16,-3.77 -29.93,-3.93 -29.65,-4.02 -29.38,-4.10 -29.09,-4.09 -28.81,-4.08 -28.81,-4.08 -28.81,-4.08 -26.01,-3.42 -23.22,-2.76 -20.80,-2.52 -18.39,-2.28 -16.66,-2.13 -14.94,-1.97 -11.91,-1.90 -8.88,-1.83 -4.44,-1.94 -0.00,-2.05 0.24,-2.02 0.48,-1.99 0.71,-1.91 0.95,-1.82 1.15,-1.68 1.35,-1.54 1.52,-1.35 1.68,-1.17 1.80,-0.95 1.92,-0.73 1.98,-0.49 2.04,-0.25 2.04,-0.00 2.04,0.24 1.98,0.48 1.92,0.72 1.80,0.94 1.69,1.16 1.53,1.34 1.36,1.53 1.16,1.67 0.96,1.81 0.72,1.90 0.49,1.99 0.25,2.02 0.00,2.05 0.00,2.05 L 0.00,2.05 Z"></path></g><g transform="translate(209.7993641984383 350.7442990731188) rotate(0 -13.059003390508337 25.253441271502197)" stroke="none"><path fill="#495057" d="M 0.85,1.82 Q 0.85,1.82 -0.57,2.52 -2.00,3.22 -3.93,4.13 -5.86,5.05 -7.75,6.29 -9.65,7.54 -11.94,9.40 -14.24,11.26 -16.36,13.09 -18.49,14.92 -19.94,16.27 -21.38,17.61 -22.19,18.68 -23.00,19.75 -23.48,20.81 -23.96,21.86 -22.46,23.05 -20.97,24.24 -20.02,25.18 -19.07,26.13 -17.09,28.70 -15.11,31.26 -13.42,33.69 -11.73,36.12 -9.44,39.03 -7.16,41.94 -5.28,43.74 -3.40,45.55 -1.82,47.08 -0.24,48.61 -0.08,48.84 0.07,49.08 0.14,49.35 0.22,49.63 0.20,49.91 0.18,50.20 0.08,50.46 -0.02,50.73 -0.20,50.94 -0.39,51.16 -0.63,51.31 -0.88,51.45 -1.16,51.51 -1.44,51.57 -1.72,51.54 -2.00,51.51 -2.26,51.39 -2.52,51.27 -2.73,51.07 -2.93,50.88 -3.06,50.63 -3.20,50.37 -3.24,50.09 -3.29,49.81 -3.24,49.53 -3.19,49.25 -3.06,49.00 -2.93,48.74 -2.72,48.55 -2.51,48.35 -2.25,48.23 -1.99,48.11 -1.71,48.08 -1.43,48.05 -1.15,48.12 -0.87,48.18 -0.63,48.33 -0.38,48.47 -0.20,48.69 -0.01,48.91 0.08,49.17 0.19,49.44 0.20,49.72 0.22,50.01 0.14,50.28 0.06,50.56 -0.09,50.79 -0.25,51.03 -0.48,51.20 -0.70,51.37 -0.98,51.46 -1.25,51.55 -1.53,51.55 -1.82,51.55 -2.09,51.46 -2.36,51.37 -2.58,51.20 -2.81,51.02 -2.81,51.02 -2.81,51.02 -4.17,49.43 -5.53,47.85 -7.64,45.95 -9.74,44.05 -12.18,41.15 -14.61,38.26 -16.44,35.95 -18.27,33.63 -20.19,31.27 -22.12,28.91 -22.99,27.87 -23.86,26.82 -25.83,24.43 -27.80,22.04 -27.65,20.95 -27.51,19.87 -26.55,18.68 -25.59,17.49 -24.53,16.43 -23.47,15.36 -21.99,14.00 -20.51,12.64 -18.41,10.72 -16.30,8.80 -13.96,6.76 -11.61,4.73 -9.61,3.25 -7.61,1.77 -5.68,0.63 -3.76,-0.50 -2.30,-1.16 -0.85,-1.82 -0.62,-1.90 -0.39,-1.97 -0.15,-1.99 0.08,-2.01 0.32,-1.97 0.56,-1.93 0.79,-1.83 1.01,-1.74 1.20,-1.59 1.40,-1.45 1.55,-1.26 1.70,-1.07 1.81,-0.85 1.91,-0.63 1.96,-0.39 2.01,-0.15 1.99,0.08 1.98,0.32 1.92,0.56 1.85,0.79 1.73,1.00 1.60,1.21 1.43,1.39 1.27,1.56 1.06,1.69 0.85,1.82 0.85,1.82 L 0.85,1.82 Z"></path></g><g transform="translate(371.8315027444112 374.6559222377118) rotate(0 50.15998488664627 9.600000000000001)"><text x="0" y="13.696" font-family="Local Font, Segoe UI Emoji" font-size="16px" fill="#495057" text-anchor="start" style="white-space: pre;" direction="ltr" dominant-baseline="alphabetic">每天提交 2 次</text></g><g stroke-linecap="round" transform="translate(12.593546692203063 249.17225243027315) rotate(0 260.8614378525835 101.81224615538304)"><path d="M0 0 C126.69 -1.61, 251.43 -2.15, 521.72 0 M0 0 C151.62 0.43, 302.62 -0.1, 521.72 0 M521.72 0 C521.29 62.27, 520.2 127.66, 521.72 203.62 M521.72 0 C520.06 63.1, 519.46 127.47, 521.72 203.62 M521.72 203.62 C392.83 202.74, 264.71 202.82, 0 203.62 M521.72 203.62 C416.41 204.18, 310.57 203.66, 0 203.62 M0 203.62 C0.48 134.18, -0.24 64.81, 0 0 M0 203.62 C-0.67 140.66, -0.01 79.7, 0 0" stroke="#495057" stroke-width="1" fill="none"></path></g><g transform="translate(523.3083103956935 334.1679115271327) rotate(89.43486580238388 39.57599496841431 9.6)"><text x="0" y="13.696" font-family="Local Font, Segoe UI Emoji" font-size="16px" fill="#495057" text-anchor="start" style="white-space: pre;" direction="ltr" dominant-baseline="alphabetic">构建量为 4</text></g><g transform="translate(163.5295271919913 272.15633312547925) rotate(0 13.873580932617188 15.013743541359212)"><text x="0" y="21.419607452339143" font-family="Local Font, Segoe UI Emoji" font-size="25.022905902265354px" fill="#495057" text-anchor="start" style="white-space: pre;" direction="ltr" dominant-baseline="alphabetic">x2</text></g><g stroke-linecap="round" transform="translate(793.7987245202166 507.9704297231324) rotate(0 22.08487971290191 20.32702338216245)"><path d="M23.98 0.17 C28.37 0.4, 34.17 3.14, 37.56 6.17 C40.96 9.2, 43.95 14.02, 44.34 18.34 C44.73 22.66, 42.72 28.56, 39.93 32.11 C37.14 35.66, 32.15 38.57, 27.58 39.63 C23.02 40.7, 16.88 40.42, 12.53 38.51 C8.17 36.61, 3.46 32.21, 1.48 28.21 C-0.51 24.22, -0.73 18.71, 0.6 14.53 C1.94 10.36, 5.41 5.51, 9.47 3.18 C13.54 0.85, 22.21 0.89, 24.98 0.55 C27.74 0.21, 26.14 0.91, 26.05 1.14 M22.68 -0.31 C27.14 -0.63, 33.56 1.85, 36.97 4.77 C40.39 7.68, 42.58 12.89, 43.18 17.18 C43.78 21.46, 43.03 26.76, 40.57 30.5 C38.11 34.25, 32.86 38.12, 28.44 39.64 C24.01 41.15, 18.42 41.32, 14.04 39.61 C9.67 37.91, 4.44 33.22, 2.18 29.4 C-0.08 25.57, -0.66 20.87, 0.48 16.68 C1.63 12.48, 5.37 7.13, 9.06 4.23 C12.75 1.33, 20.42 -0.12, 22.64 -0.73 C24.85 -1.33, 22.29 0.22, 22.34 0.6" stroke="#000000" stroke-width="2" fill="none"></path></g><g stroke-linecap="round"><g transform="translate(814.0652687920337 548.3983119839722) rotate(0 -1.083666726244104 24.643077690695662)"><path d="M0.22 0.37 C-0.24 8.53, -2.2 40.84, -2.59 48.93 M-0.33 0.08 C-0.64 8.31, -1.22 41.25, -1.57 49.45" stroke="#000000" stroke-width="2" fill="none"></path></g></g><mask></mask><g stroke-linecap="round"><g transform="translate(811.4810990102451 599.662165901289) rotate(0 9.755068602468242 15.028637594686586)"><path d="M-0.91 -0.77 C2.29 3.97, 16.27 24, 19.68 29.23 M0.81 1.44 C3.82 6.24, 15.82 25.81, 18.82 30.33" stroke="#000000" stroke-width="2" fill="none"></path></g></g><mask></mask><g stroke-linecap="round"><g transform="translate(810.8735217042149 598.8004348084678) rotate(0 -9.39167304544867 12.866559854730355)"><path d="M0.17 -0.83 C-2.8 3.68, -15.37 21.89, -18.73 26.28 M-1.2 1.35 C-4.24 5.57, -16.9 20.21, -19.64 24.45" stroke="#000000" stroke-width="2" fill="none"></path></g></g><mask></mask><g stroke-linecap="round"><g transform="translate(794.5326786658952 558.0865541899266) rotate(0 9.475879655821387 9.095355461873083)"><path d="M0.06 0.55 C2.99 3.69, 14.68 15.05, 17.78 18.01 M-1.37 -0.2 C1.9 3.2, 16.69 16.13, 19.88 19.46" stroke="#000000" stroke-width="2" fill="none"></path></g></g><mask></mask><g stroke-linecap="round"><g transform="translate(815.0333028288806 576.410171450349) rotate(0 13.655441590438357 -7.701478794910258)"><path d="M-1.17 -0.18 C3.33 -2.81, 22.48 -12.71, 27.07 -15.23 M0.42 -1.32 C4.74 -3.78, 21.27 -11.51, 25.99 -13.61" stroke="#000000" stroke-width="2" fill="none"></path></g></g><mask></mask><g stroke-linecap="round"><g transform="translate(786.7178161414668 511.82647535795286) rotate(0 31.730823847433896 6.455614592500893)"><path d="M-0.25 0.17 C10.37 2.37, 51.94 11.08, 62.51 13.01 M1.83 -0.79 C12.91 1.64, 54.65 12.39, 64.72 14.6" stroke="#000000" stroke-width="2" fill="none"></path></g></g><mask></mask><g stroke-linecap="round" transform="translate(806.9158517319847 470.5796105923746) rotate(10.74366233694554 16.35750011333016 22.990451630855873)"><path d="M-0.94 -0.9 L32.77 -0.53 L32.88 46.66 L-0.05 45.25" stroke="none" stroke-width="0" fill="#fff"></path><path d="M0 0 C9.23 -0.11, 17.35 -0.79, 32.72 0 M0 0 C7.97 -0.18, 16.98 0.06, 32.72 0 M32.72 0 C32.59 18.11, 33.36 34.93, 32.72 45.98 M32.72 0 C32.3 11.76, 32.56 23.4, 32.72 45.98 M32.72 45.98 C26.37 45.31, 18.19 46.05, 0 45.98 M32.72 45.98 C21.27 45.45, 9.62 46.06, 0 45.98 M0 45.98 C1.01 30.31, 0.63 12.76, 0 0 M0 45.98 C0.36 34.47, 0.08 23.28, 0 0" stroke="#000000" stroke-width="2" fill="none"></path></g><g stroke-linecap="round"><g transform="translate(816.0905437904585 537.1565032300464) rotate(0 0.7898335824609148 4.417686615041546)" fill-rule="evenodd"><path d="M0.08 1.18 C2.85 1.81, 10.64 3, 14.4 3.91 C18.16 4.83, 20.06 7.12, 22.63 6.69 C25.2 6.26, 29.62 1.16, 29.82 1.34 C30.03 1.52, 26.36 6.13, 23.86 7.78 C21.37 9.43, 18.65 11.72, 14.85 11.24 C11.06 10.76, 5.93 4.98, 1.11 4.92 C-3.71 4.85, -9.78 11.78, -14.06 10.85 C-18.34 9.93, -23.83 0.76, -24.58 -0.62 C-25.34 -2.01, -22.35 2.74, -18.61 2.53 C-14.88 2.33, -5.41 -1.35, -2.18 -1.87" stroke="none" stroke-width="0" fill="#000" fill-rule="evenodd"></path><path d="M-0.29 -1.13 C2.36 -0.23, 11.27 4.48, 14.96 5.5 C18.65 6.52, 19.9 5.7, 21.84 5.02 C23.77 4.34, 26.1 0.57, 26.57 1.43 C27.04 2.29, 26.32 8.83, 24.68 10.17 C23.04 11.51, 20.97 10.05, 16.72 9.47 C12.48 8.88, 4.59 6.6, -0.81 6.65 C-6.21 6.71, -11.53 11.28, -15.68 9.79 C-19.84 8.29, -25.68 -1.23, -25.74 -2.31 C-25.8 -3.39, -20.13 2.96, -16.04 3.31 C-11.95 3.66, -3.77 0.47, -1.19 -0.19 M1.76 0.89 C4.85 1.94, 13.93 5.88, 17.09 6.75 C20.26 7.62, 19.19 6.85, 20.73 6.1 C22.28 5.35, 25.9 1.48, 26.38 2.22 C26.87 2.97, 25.54 9.02, 23.64 10.56 C21.74 12.1, 19 12.34, 14.98 11.47 C10.95 10.61, 4.7 5.62, -0.51 5.37 C-5.71 5.12, -11.8 10.94, -16.28 9.99 C-20.76 9.05, -27.59 0.93, -27.38 -0.3 C-27.17 -1.54, -19.36 2.42, -15.04 2.59 C-10.73 2.76, -4.23 1.37, -1.49 0.69" stroke="#000000" stroke-width="1" fill="none"></path></g></g><mask></mask><g stroke-linecap="round" transform="translate(798.5904418973987 520.4899736316752) rotate(0 7.235162164231923 5.761438751069534)"><path d="M6.02 0.4 C7.5 0.29, 9.83 0.73, 11.1 1.29 C12.37 1.85, 13.16 2.57, 13.64 3.74 C14.12 4.91, 14.41 7.09, 13.98 8.29 C13.54 9.48, 12.45 10.34, 11.03 10.89 C9.61 11.44, 7.1 11.93, 5.48 11.57 C3.86 11.22, 2.22 9.84, 1.3 8.79 C0.37 7.74, -0.13 6.52, -0.07 5.29 C-0.02 4.06, 0.51 2.3, 1.6 1.43 C2.69 0.55, 5.58 0.32, 6.46 0.05 C7.33 -0.22, 6.91 -0.3, 6.85 -0.2 M8.14 -0.69 C9.44 -0.55, 11.14 1.09, 12.26 2.03 C13.38 2.97, 14.6 3.67, 14.85 4.98 C15.1 6.29, 14.68 8.76, 13.75 9.89 C12.81 11.01, 10.96 11.64, 9.22 11.74 C7.47 11.84, 4.83 11.21, 3.28 10.49 C1.73 9.77, 0.35 8.53, -0.1 7.42 C-0.55 6.32, 0.02 4.94, 0.56 3.87 C1.09 2.81, 1.97 1.77, 3.12 1.02 C4.27 0.27, 6.59 -0.42, 7.43 -0.63 C8.28 -0.84, 8.04 -0.53, 8.16 -0.24" stroke="#000000" stroke-width="1" fill="none"></path></g><g stroke-linecap="round" transform="translate(805.1567280948984 525.0346087201101) rotate(0 0.37748672161208674 0.4956896344401258)"><path d="M0.34 0.27 C0.38 0.18, 0.19 -0.15, 0.26 -0.1 C0.33 -0.05, 0.65 0.44, 0.77 0.58 C0.9 0.71, 1.07 0.63, 1.01 0.71 C0.95 0.79, 0.55 1.07, 0.4 1.06 C0.26 1.05, 0.21 0.72, 0.15 0.65 C0.08 0.58, 0.08 0.71, 0.02 0.63 C-0.04 0.55, -0.2 0.24, -0.19 0.16 C-0.17 0.08, 0.01 0.23, 0.12 0.17 C0.24 0.1, 0.51 -0.2, 0.5 -0.22 C0.49 -0.25, 0.05 -0.07, 0.06 0.03 M0.17 0.12 C0.29 0.14, 0.69 -0.34, 0.87 -0.23 C1.04 -0.11, 1.23 0.62, 1.24 0.82 C1.26 1.02, 1.16 0.98, 0.96 0.96 C0.77 0.94, 0.28 0.75, 0.09 0.69 C-0.1 0.63, -0.2 0.59, -0.18 0.59 C-0.16 0.58, 0.21 0.65, 0.22 0.64 C0.22 0.62, -0.03 0.66, -0.12 0.5 C-0.22 0.34, -0.43 -0.19, -0.35 -0.32 C-0.26 -0.45, 0.26 -0.38, 0.39 -0.27 C0.52 -0.15, 0.45 0.36, 0.44 0.35" stroke="#000000" stroke-width="1" fill="none"></path></g><g stroke-linecap="round" transform="translate(825.0186304472045 526.7466444575225) rotate(0 0.3812997188001077 0.6482095219601689)"><path d="M0.1 -0.18 C0.18 -0.17, 0.53 0.29, 0.69 0.43 C0.85 0.56, 1.08 0.51, 1.05 0.63 C1.03 0.75, 0.67 1.1, 0.55 1.16 C0.43 1.21, 0.39 0.96, 0.33 0.95 C0.26 0.93, 0.24 1.13, 0.16 1.07 C0.08 1.01, -0.14 0.7, -0.16 0.6 C-0.18 0.5, -0.05 0.59, 0.03 0.47 C0.12 0.35, 0.31 -0.04, 0.33 -0.12 C0.35 -0.19, 0.09 -0.05, 0.14 0.03 C0.18 0.1, 0.57 0.34, 0.6 0.35 M0.58 -0.32 C0.77 -0.3, 1 0.36, 1.07 0.52 C1.14 0.69, 1.12 0.66, 0.99 0.67 C0.86 0.69, 0.45 0.59, 0.3 0.62 C0.16 0.64, 0.1 0.74, 0.12 0.83 C0.15 0.92, 0.49 1.11, 0.47 1.16 C0.44 1.21, 0.11 1.29, -0.04 1.13 C-0.2 0.96, -0.5 0.38, -0.47 0.19 C-0.44 0, -0.02 -0.07, 0.12 -0.04 C0.27 -0.01, 0.37 0.4, 0.4 0.35 C0.43 0.3, 0.25 -0.25, 0.3 -0.35" stroke="#000000" stroke-width="1" fill="none"></path></g><g transform="translate(326.60421037858873 540.6027781058501) rotate(0 18.89008331298828 15.013743541359219)"><text x="0" y="21.419607452339143" font-family="Local Font, Segoe UI Emoji" font-size="25.022905902265354px" fill="#495057" text-anchor="start" style="white-space: pre;" direction="ltr" dominant-baseline="alphabetic">x10</text></g><g stroke-linecap="round" transform="translate(253.31292025601715 562.4763260032223) rotate(0 40.949788461311165 40.94978846131116)"><path d="M31.54 -0.03 C38.5 -1.81, 48.88 0.54, 56 3.22 C63.11 5.9, 70.1 10.24, 74.25 16.05 C78.41 21.86, 80.63 30.74, 80.95 38.08 C81.26 45.42, 79.53 53.48, 76.15 60.11 C72.76 66.73, 67.01 74.24, 60.64 77.81 C54.27 81.37, 45.19 82.26, 37.93 81.51 C30.68 80.76, 22.93 77.71, 17.11 73.3 C11.29 68.89, 5.76 62.09, 3.02 55.05 C0.27 48, -0.89 38.28, 0.63 31.03 C2.15 23.79, 6.45 16.76, 12.15 11.59 C17.85 6.41, 30.97 1.62, 34.83 0 C38.7 -1.61, 35.23 1.17, 35.32 1.89 M59.31 3.92 C65.83 6.45, 72.03 12.06, 75.98 18.26 C79.93 24.47, 83.07 33.72, 82.99 41.17 C82.91 48.61, 79.49 56.96, 75.49 62.93 C71.48 68.9, 65.57 74.17, 58.96 77.01 C52.35 79.85, 43.17 81.02, 35.84 80 C28.51 78.98, 20.51 75.53, 14.97 70.89 C9.43 66.26, 4.69 59.07, 2.61 52.21 C0.53 45.35, 0.62 36.55, 2.51 29.75 C4.39 22.94, 8.7 16.42, 13.92 11.38 C19.15 6.34, 26.59 0.6, 33.87 -0.5 C41.15 -1.59, 53.88 3.94, 57.6 4.82 C61.32 5.69, 56.39 4.44, 56.18 4.77" stroke="none" stroke-width="0" fill="white"></path><path d="M30.92 1.54 C37.43 -0.93, 45.86 0.2, 52.69 2.22 C59.52 4.24, 67.12 8.13, 71.9 13.64 C76.69 19.16, 80.5 27.96, 81.41 35.3 C82.32 42.63, 80.49 50.9, 77.36 57.65 C74.22 64.39, 68.68 71.86, 62.58 75.78 C56.49 79.71, 48.31 81.33, 40.77 81.22 C33.24 81.1, 23.53 78.91, 17.39 75.1 C11.25 71.29, 6.79 65.12, 3.93 58.35 C1.07 51.58, -0.68 41.99, 0.24 34.47 C1.16 26.96, 4.25 18.73, 9.46 13.26 C14.68 7.8, 27.77 3.44, 31.54 1.67 C35.3 -0.09, 31.79 2.01, 32.05 2.67 M49.37 0.03 C56.61 1.21, 65.88 6.81, 71.12 12.39 C76.36 17.97, 79.73 26.41, 80.79 33.5 C81.86 40.59, 80.2 48.23, 77.52 54.91 C74.84 61.59, 70.45 68.91, 64.71 73.57 C58.96 78.23, 50.44 82.59, 43.04 82.87 C35.64 83.15, 26.57 79.29, 20.31 75.26 C14.05 71.24, 8.92 65.27, 5.46 58.71 C2 52.16, -0.94 43.15, -0.44 35.93 C0.06 28.72, 3.95 21.26, 8.47 15.43 C12.98 9.6, 19.85 3.17, 26.66 0.96 C33.46 -1.26, 45.36 1.96, 49.31 2.14 C53.25 2.33, 50.18 1.64, 50.33 2.08" stroke="#000000" stroke-width="1" fill="none"></path></g><g stroke-linecap="round" transform="translate(280.6556656710891 577.7095070422338) rotate(0 14.523151962772985 14.523151962773)"><path d="M13.98 0.07 C16.85 -0.27, 20.69 1.07, 23.08 2.93 C25.47 4.78, 27.69 8.18, 28.31 11.19 C28.93 14.2, 28.17 18.12, 26.81 20.97 C25.44 23.82, 22.89 27.11, 20.11 28.29 C17.33 29.46, 13.19 29.05, 10.12 28.01 C7.06 26.96, 3.44 24.68, 1.73 22.02 C0.02 19.36, -0.7 15.04, -0.15 12.05 C0.4 9.06, 2.56 6.09, 5.03 4.06 C7.51 2.03, 12.94 0.51, 14.69 -0.13 C16.44 -0.78, 15.5 -0.09, 15.53 0.18 M13.04 0.68 C16.01 0.19, 19.68 0.61, 22.35 2.36 C25.02 4.12, 28.22 8.04, 29.07 11.19 C29.92 14.33, 28.74 18.61, 27.46 21.23 C26.17 23.86, 24 25.71, 21.35 26.95 C18.69 28.2, 14.61 29.41, 11.55 28.7 C8.49 27.99, 4.81 25.21, 2.98 22.68 C1.16 20.14, 0.39 16.55, 0.59 13.48 C0.8 10.42, 2.05 6.6, 4.22 4.27 C6.4 1.93, 12.09 0.26, 13.64 -0.51 C15.19 -1.29, 13.51 -0.65, 13.52 -0.4" stroke="none" stroke-width="0" fill="black"></path><path d="M16.75 0.39 C19.59 0.62, 23.35 2.33, 25.39 4.63 C27.42 6.93, 28.96 11.09, 28.97 14.2 C28.97 17.32, 27.39 20.9, 25.42 23.34 C23.45 25.78, 20.12 28.25, 17.15 28.83 C14.18 29.41, 10.35 28.34, 7.57 26.8 C4.79 25.26, 1.55 22.37, 0.47 19.59 C-0.61 16.82, 0 13.06, 1.1 10.13 C2.2 7.19, 4.41 3.66, 7.05 1.99 C9.7 0.32, 15.14 0.28, 16.96 0.11 C18.78 -0.06, 18 0.59, 17.98 0.95 M16.97 -0.06 C19.73 0.24, 23.3 2.58, 25.35 5.07 C27.4 7.57, 29.32 11.71, 29.27 14.93 C29.22 18.15, 27.32 22.19, 25.07 24.41 C22.82 26.62, 18.8 27.91, 15.76 28.24 C12.71 28.57, 9.29 27.86, 6.8 26.39 C4.31 24.93, 1.76 22.43, 0.81 19.44 C-0.15 16.45, -0.19 11.49, 1.05 8.45 C2.29 5.42, 5.55 2.64, 8.26 1.21 C10.97 -0.23, 15.79 -0.07, 17.31 -0.18 C18.83 -0.28, 17.47 0.34, 17.39 0.55" stroke="#000000" stroke-width="1" fill="none"></path></g><g stroke-linecap="round"><g transform="translate(266.31654403810535 625.3691991559053) rotate(0 28.264776173521017 -0.11013077739505661)" fill-rule="evenodd"><path d="M1.27 -1.62 C3.9 -3, 10.13 -5.71, 14.88 -7.71 C19.62 -9.71, 24.87 -13.11, 29.75 -13.6 C34.63 -14.09, 40.07 -12.42, 44.17 -10.64 C48.27 -8.85, 53.58 -6.25, 54.35 -2.89 C55.12 0.47, 52.11 6.54, 48.79 9.5 C45.48 12.46, 39.35 14.47, 34.46 14.89 C29.56 15.3, 23.41 13.19, 19.42 11.98 C15.43 10.76, 13.69 9.3, 10.52 7.58 C7.35 5.86, 2.17 3.22, 0.39 1.65" stroke="none" stroke-width="0" fill="black" fill-rule="evenodd"></path><path d="M0.81 1.04 C3.01 -0.7, 7.82 -7.61, 12.51 -10.33 C17.21 -13.05, 23.53 -15.41, 28.96 -15.29 C34.39 -15.16, 40.61 -11.81, 45.1 -9.55 C49.6 -7.28, 55.65 -4.98, 55.95 -1.69 C56.26 1.6, 50.41 7.37, 46.93 10.17 C43.46 12.98, 39.46 14.64, 35.12 15.14 C30.79 15.63, 25.02 14.08, 20.91 13.14 C16.8 12.2, 13.74 11.73, 10.46 9.48 C7.17 7.24, 2.93 1.44, 1.19 -0.33 M-0.22 0.54 C1.88 -1.05, 6.83 -6.6, 11.6 -9.06 C16.38 -11.52, 22.91 -14.32, 28.43 -14.23 C33.95 -14.15, 39.82 -10.64, 44.73 -8.55 C49.63 -6.45, 57.33 -4.61, 57.84 -1.66 C58.35 1.3, 51.45 6.54, 47.77 9.17 C44.1 11.79, 39.9 12.97, 35.79 14.1 C31.68 15.22, 27.61 16.85, 23.11 15.91 C18.62 14.96, 12.85 11.23, 8.82 8.42 C4.79 5.6, 0.34 0.58, -1.08 -0.96" stroke="#000000" stroke-width="1" fill="none"></path></g></g><mask></mask><g stroke-linecap="round" transform="translate(92.98672716505939 545.9396539319287) rotate(0 35.339290345615666 53.6254093970546)"><path d="M-0.23 0.14 L71.35 -0.51 L70.93 105.43 L-0.83 105.51" stroke="none" stroke-width="0" fill="#fff"></path><path d="M0 0 C25.13 0.7, 51.12 -2.03, 70.68 0 M0 0 C19.16 0.45, 40.17 0.88, 70.68 0 M70.68 0 C70.74 26.9, 69.19 49.84, 70.68 107.25 M70.68 0 C70.79 21.05, 71.27 44.28, 70.68 107.25 M70.68 107.25 C44.88 104.86, 19.64 107.26, 0 107.25 M70.68 107.25 C50.29 106.44, 31.84 106.81, 0 107.25 M0 107.25 C-2.19 74.62, -1.94 38.6, 0 0 M0 107.25 C-0.41 81.54, -0.68 58.16, 0 0" stroke="#000000" stroke-width="2" fill="none"></path></g><g stroke-linecap="round" transform="translate(85.43929412934517 538.9195646462131) rotate(0 35.339290345615666 53.6254093970546)"><path d="M0.67 -0.51 L70.93 -1.82 L69.85 105.51 L-1.59 105.26" stroke="none" stroke-width="0" fill="#fff"></path><path d="M0 0 C20.77 -2.24, 42.91 -1.22, 70.68 0 M0 0 C17.26 0.45, 33.77 -0.91, 70.68 0 M70.68 0 C70.66 32.84, 69.26 64.9, 70.68 107.25 M70.68 0 C72.23 35.68, 71.74 70.12, 70.68 107.25 M70.68 107.25 C54.09 107.24, 40.06 106.11, 0 107.25 M70.68 107.25 C48.58 106.08, 26.53 107.29, 0 107.25 M0 107.25 C-0.43 74.77, -0.58 43.52, 0 0 M0 107.25 C-0.22 76.65, 0.6 44.83, 0 0" stroke="#000000" stroke-width="2" fill="none"></path></g><g stroke-linecap="round" transform="translate(76.04420484362981 530.6656583962131) rotate(0 35.339290345615666 53.6254093970546)"><path d="M0.25 -1.82 L69.85 -1.74 L69.09 105.26 L-1.8 108.16" stroke="none" stroke-width="0" fill="#fff"></path><path d="M0 0 C23.49 -0.26, 46.49 -1.12, 70.68 0 M0 0 C20.91 -1.21, 43.23 0.16, 70.68 0 M70.68 0 C68.43 42.07, 70.87 86.68, 70.68 107.25 M70.68 0 C72.25 25.57, 70.88 49.65, 70.68 107.25 M70.68 107.25 C55.27 106.96, 41.12 105.59, 0 107.25 M70.68 107.25 C56.01 107.55, 40.97 106.14, 0 107.25 M0 107.25 C-0.71 67.79, 0.48 27.94, 0 0 M0 107.25 C0.88 84.18, 1.33 60.71, 0 0" stroke="#000000" stroke-width="2" fill="none"></path></g><g stroke-linecap="round"><g transform="translate(88.03063143054078 579.4128954435664) rotate(0 23.28991792865041 -1.467583869476627)"><path d="M-0.26 -0.31 C6.48 -0.26, 32.11 0.61, 39.92 0.19 C47.73 -0.23, 45.55 -2.2, 46.6 -2.83 M0.6 0.72 C7.56 0.87, 33.29 1.65, 40.9 0.9 C48.51 0.16, 45.39 -3.05, 46.26 -3.76" stroke="#000000" stroke-width="1" fill="none"></path></g></g><mask></mask><g stroke-linecap="round"><g transform="translate(89.88588366855492 547.9476081447274) rotate(0 22.78370784033821 -1.4016489420073555)"><path d="M-0.5 0.03 C2.35 -0.34, 9.23 -2.4, 16.85 -2.54 C24.47 -2.68, 40.4 -1.22, 45.2 -0.81 M0.24 -0.43 C3.05 -0.94, 8.75 -3.36, 16.43 -3.37 C24.11 -3.37, 41.44 -0.84, 46.32 -0.45" stroke="#000000" stroke-width="1" fill="none"></path></g></g><mask></mask><g stroke-linecap="round"><g transform="translate(89.80928415218568 615.3419824150851) rotate(0 24.16834131719213 0.17504253415344806)"><path d="M0.02 0.27 C4.44 0.14, 19.77 -1.12, 26.04 -0.73 C32.31 -0.35, 33.85 2.82, 37.65 2.59 C41.46 2.36, 47.1 -1.27, 48.88 -2.12 M-0.64 -0.07 C4 -0.15, 20.76 -0.57, 27.08 -0.28 C33.41 0.01, 33.9 1.9, 37.32 1.67 C40.74 1.43, 45.89 -0.98, 47.61 -1.69" stroke="#000000" stroke-width="1" fill="none"></path></g></g><mask></mask><g stroke-linecap="round"><g transform="translate(86.62523697065535 626.5851308233641) rotate(0 27.203474913921227 -0.8422655250909372)"><path d="M-0.81 -1.05 C0.89 -1.24, 7.22 -0.54, 10.24 -0.57 C13.26 -0.59, 11.32 -1.18, 17.32 -1.18 C23.33 -1.17, 40.16 -0.42, 46.27 -0.56 C52.37 -0.7, 52.5 -1.58, 53.96 -2 M0.96 1.02 C2.51 0.42, 6.63 -2.2, 9.33 -2.37 C12.03 -2.55, 10.98 -0.42, 17.18 -0.03 C23.38 0.35, 40.06 0.17, 46.52 -0.07 C52.97 -0.31, 54.81 -1.32, 55.91 -1.45" stroke="#000000" stroke-width="1" fill="none"></path></g></g><mask></mask><g stroke-linecap="round"><g transform="translate(86.91007986622117 563.0082096979886) rotate(0 23.464326446472256 0.6465876758274192)"><path d="M0.03 0.28 C3.22 0.23, 10.92 -0.92, 18.74 -0.74 C26.56 -0.57, 42.27 0.89, 46.93 1.35 M-0.61 -0.06 C2.58 0.02, 10.72 -0.41, 18.59 -0.12 C26.46 0.17, 41.89 1.22, 46.58 1.67" stroke="#000000" stroke-width="1" fill="none"></path></g></g><mask></mask><g stroke-linecap="round"><g transform="translate(87.01756806237154 597.4915387338287) rotate(0 23.464326446472256 0.6465876758274192)"><path d="M0.55 -0.15 C1.89 -0.05, 5.19 0.94, 8.1 0.89 C11 0.84, 11.47 -0.56, 17.99 -0.46 C24.51 -0.35, 42.3 1.05, 47.21 1.52 M0.16 -0.71 C1.43 -0.58, 4.77 1.16, 7.67 1.32 C10.56 1.47, 10.9 0.13, 17.53 0.21 C24.17 0.3, 42.55 1.69, 47.47 1.84" stroke="#000000" stroke-width="1" fill="none"></path></g></g><mask></mask><g transform="translate(228.3272445210314 594.183629322074) rotate(0 -12.839167288730039 -0.6539662187351496)" stroke="none"><path fill="#495057" d="M -0.22,2.27 Q -0.22,2.27 -2.15,2.01 -4.09,1.74 -5.37,1.64 -6.66,1.55 -8.34,1.40 -10.02,1.26 -11.88,1.15 -13.75,1.04 -15.52,0.94 -17.29,0.85 -18.83,0.83 -20.36,0.82 -22.75,0.85 -25.14,0.88 -25.49,0.82 -25.84,0.76 -26.15,0.59 -26.46,0.42 -26.70,0.16 -26.94,-0.09 -27.09,-0.41 -27.24,-0.73 -27.27,-1.08 -27.31,-1.43 -27.23,-1.78 -27.15,-2.12 -26.97,-2.43 -26.78,-2.73 -26.51,-2.95 -26.24,-3.18 -25.91,-3.31 -25.58,-3.44 -25.23,-3.45 -24.87,-3.47 -24.53,-3.37 -24.19,-3.28 -23.90,-3.08 -23.61,-2.87 -23.40,-2.59 -23.19,-2.31 -23.08,-1.97 -22.97,-1.64 -22.97,-1.28 -22.97,-0.93 -23.09,-0.59 -23.20,-0.26 -23.42,0.01 -23.63,0.29 -23.93,0.49 -24.22,0.68 -24.57,0.77 -24.91,0.87 -25.26,0.84 -25.61,0.82 -25.94,0.69 -26.27,0.56 -26.54,0.32 -26.80,0.09 -26.98,-0.20 -27.16,-0.51 -27.24,-0.85 -27.31,-1.20 -27.27,-1.55 -27.23,-1.90 -27.08,-2.22 -26.93,-2.54 -26.68,-2.79 -26.44,-3.05 -26.12,-3.21 -25.81,-3.38 -25.46,-3.43 -25.11,-3.48 -25.11,-3.48 -25.11,-3.48 -22.69,-3.41 -20.27,-3.33 -18.68,-3.27 -17.10,-3.21 -15.37,-3.14 -13.63,-3.06 -11.67,-3.07 -9.71,-3.07 -7.94,-2.97 -6.16,-2.87 -4.92,-2.68 -3.68,-2.49 -1.73,-2.38 0.22,-2.27 0.49,-2.22 0.75,-2.16 1.00,-2.03 1.25,-1.91 1.46,-1.73 1.67,-1.56 1.83,-1.33 2.00,-1.11 2.10,-0.85 2.20,-0.60 2.24,-0.32 2.28,-0.05 2.26,0.21 2.23,0.49 2.14,0.75 2.05,1.01 1.90,1.24 1.75,1.47 1.54,1.66 1.34,1.85 1.10,1.98 0.86,2.12 0.59,2.19 0.33,2.26 0.05,2.27 -0.22,2.27 -0.22,2.27 L -0.22,2.27 Z"></path></g><g transform="translate(224.5253731138073 609.5943247929508) rotate(0 -14.836165826732497 -1.1176541308896049)" stroke="none"><path fill="#495057" d="M 0.00,2.05 Q 0.00,2.05 -4.43,1.96 -8.87,1.88 -11.99,1.66 -15.11,1.43 -16.87,1.34 -18.64,1.24 -21.13,0.87 -23.63,0.50 -26.55,-0.05 -29.48,-0.60 -29.75,-0.70 -30.02,-0.80 -30.24,-0.98 -30.46,-1.16 -30.62,-1.40 -30.77,-1.64 -30.84,-1.92 -30.91,-2.20 -30.89,-2.49 -30.86,-2.77 -30.75,-3.04 -30.64,-3.30 -30.44,-3.51 -30.25,-3.73 -30.00,-3.87 -29.75,-4.01 -29.47,-4.06 -29.19,-4.12 -28.90,-4.08 -28.62,-4.04 -28.36,-3.91 -28.11,-3.78 -27.90,-3.58 -27.70,-3.38 -27.57,-3.12 -27.45,-2.86 -27.41,-2.58 -27.37,-2.29 -27.42,-2.01 -27.48,-1.73 -27.62,-1.48 -27.76,-1.23 -27.98,-1.04 -28.19,-0.85 -28.45,-0.73 -28.72,-0.62 -29.00,-0.60 -29.29,-0.58 -29.57,-0.65 -29.85,-0.72 -30.09,-0.87 -30.33,-1.03 -30.51,-1.25 -30.69,-1.47 -30.79,-1.74 -30.88,-2.01 -30.89,-2.30 -30.90,-2.59 -30.81,-2.86 -30.73,-3.13 -30.56,-3.37 -30.39,-3.60 -30.16,-3.77 -29.93,-3.93 -29.65,-4.02 -29.38,-4.10 -29.09,-4.09 -28.81,-4.08 -28.81,-4.08 -28.81,-4.08 -26.01,-3.42 -23.22,-2.76 -20.80,-2.52 -18.39,-2.28 -16.66,-2.13 -14.94,-1.97 -11.91,-1.90 -8.88,-1.83 -4.44,-1.94 -0.00,-2.05 0.24,-2.02 0.48,-1.99 0.71,-1.91 0.95,-1.82 1.15,-1.68 1.35,-1.54 1.52,-1.35 1.68,-1.17 1.80,-0.95 1.92,-0.73 1.98,-0.49 2.04,-0.25 2.04,-0.00 2.04,0.24 1.98,0.48 1.92,0.72 1.80,0.94 1.69,1.16 1.53,1.34 1.36,1.53 1.16,1.67 0.96,1.81 0.72,1.90 0.49,1.99 0.25,2.02 0.00,2.05 0.00,2.05 L 0.00,2.05 Z"></path></g><g transform="translate(212.0002573990464 579.4453736919322) rotate(0 -13.059003390508337 25.253441271502197)" stroke="none"><path fill="#495057" d="M 0.85,1.82 Q 0.85,1.82 -0.57,2.52 -2.00,3.22 -3.93,4.13 -5.86,5.05 -7.75,6.29 -9.65,7.54 -11.94,9.40 -14.24,11.26 -16.36,13.09 -18.49,14.92 -19.94,16.27 -21.38,17.61 -22.19,18.68 -23.00,19.75 -23.48,20.81 -23.96,21.86 -22.46,23.05 -20.97,24.24 -20.02,25.18 -19.07,26.13 -17.09,28.70 -15.11,31.26 -13.42,33.69 -11.73,36.12 -9.44,39.03 -7.16,41.94 -5.28,43.74 -3.40,45.55 -1.82,47.08 -0.24,48.61 -0.08,48.84 0.07,49.08 0.14,49.35 0.22,49.63 0.20,49.91 0.18,50.20 0.08,50.46 -0.02,50.73 -0.20,50.94 -0.39,51.16 -0.63,51.31 -0.88,51.45 -1.16,51.51 -1.44,51.57 -1.72,51.54 -2.00,51.51 -2.26,51.39 -2.52,51.27 -2.73,51.07 -2.93,50.88 -3.06,50.63 -3.20,50.37 -3.24,50.09 -3.29,49.81 -3.24,49.53 -3.19,49.25 -3.06,49.00 -2.93,48.74 -2.72,48.55 -2.51,48.35 -2.25,48.23 -1.99,48.11 -1.71,48.08 -1.43,48.05 -1.15,48.12 -0.87,48.18 -0.63,48.33 -0.38,48.47 -0.20,48.69 -0.01,48.91 0.08,49.17 0.19,49.44 0.20,49.72 0.22,50.01 0.14,50.28 0.06,50.56 -0.09,50.79 -0.25,51.03 -0.48,51.20 -0.70,51.37 -0.98,51.46 -1.25,51.55 -1.53,51.55 -1.82,51.55 -2.09,51.46 -2.36,51.37 -2.58,51.20 -2.81,51.02 -2.81,51.02 -2.81,51.02 -4.17,49.43 -5.53,47.85 -7.64,45.95 -9.74,44.05 -12.18,41.15 -14.61,38.26 -16.44,35.95 -18.27,33.63 -20.19,31.27 -22.12,28.91 -22.99,27.87 -23.86,26.82 -25.83,24.43 -27.80,22.04 -27.65,20.95 -27.51,19.87 -26.55,18.68 -25.59,17.49 -24.53,16.43 -23.47,15.36 -21.99,14.00 -20.51,12.64 -18.41,10.72 -16.30,8.80 -13.96,6.76 -11.61,4.73 -9.61,3.25 -7.61,1.77 -5.68,0.63 -3.76,-0.50 -2.30,-1.16 -0.85,-1.82 -0.62,-1.90 -0.39,-1.97 -0.15,-1.99 0.08,-2.01 0.32,-1.97 0.56,-1.93 0.79,-1.83 1.01,-1.74 1.20,-1.59 1.40,-1.45 1.55,-1.26 1.70,-1.07 1.81,-0.85 1.91,-0.63 1.96,-0.39 2.01,-0.15 1.99,0.08 1.98,0.32 1.92,0.56 1.85,0.79 1.73,1.00 1.60,1.21 1.43,1.39 1.27,1.56 1.06,1.69 0.85,1.82 0.85,1.82 L 0.85,1.82 Z"></path></g><g transform="translate(374.35629306531837 603.3569968565253) rotate(0 53.36797744035721 9.599999999999994)"><text x="0" y="13.696" font-family="Local Font, Segoe UI Emoji" font-size="16px" fill="#495057" text-anchor="start" style="white-space: pre;" direction="ltr" dominant-baseline="alphabetic">每天提交 10 次</text></g><g stroke-linecap="round" transform="translate(14.79443989281117 477.8733270490857) rotate(0 260.8614378525835 101.81224615538304)"><path d="M0 0 C208.79 -1.74, 416.39 -1.76, 521.72 0 M0 0 C116.47 0.57, 232.76 0.16, 521.72 0 M521.72 0 C521.96 62.14, 519.44 125.61, 521.72 203.62 M521.72 0 C520.74 48.66, 520.36 96.73, 521.72 203.62 M521.72 203.62 C413.75 203.65, 305.46 203.48, 0 203.62 M521.72 203.62 C412.34 201.41, 303.24 201.99, 0 203.62 M0 203.62 C-2.18 131.3, -1.7 58.55, 0 0 M0 203.62 C-1.65 136.77, -1.64 68.73, 0 0" stroke="#495057" stroke-width="1" fill="none"></path></g><g transform="translate(517.6911017137467 570.7645843235769) rotate(89.43486580238388 47.47197723388672 9.599999999999994)"><text x="0" y="13.696" font-family="Local Font, Segoe UI Emoji" font-size="16px" fill="#495057" text-anchor="start" style="white-space: pre;" direction="ltr" dominant-baseline="alphabetic">构建量为 100</text></g><g transform="translate(165.7304203925994 500.8574077442927) rotate(0 18.89008331298828 15.013743541359219)"><text x="0" y="21.419607452339143" font-family="Local Font, Segoe UI Emoji" font-size="25.022905902265354px" fill="#495057" text-anchor="start" style="white-space: pre;" direction="ltr" dominant-baseline="alphabetic">x10</text></g><g transform="translate(688.4318683543556 339.3206818839881) rotate(0 200.2424774169922 29.424995486708397)"><text x="0" y="20.98983011385199" font-family="Local Font, Segoe UI Emoji" font-size="24.520829572257px" fill="#495057" text-anchor="start" style="white-space: pre;" direction="ltr" dominant-baseline="alphabetic">构建量以指数最少二次方 的速度增长</text><text x="0" y="50.41482560056039" font-family="Local Font, Segoe UI Emoji" font-size="24.520829572257px" fill="#495057" text-anchor="start" style="white-space: pre;" direction="ltr" dominant-baseline="alphabetic">构建成了我们负担不起的代价</text></g></svg>