<svg version="1.1" xmlns="http://www.w3.org/2000/svg" viewBox="0 0 1095.5940462219135 271.8743145190425" width="1095.5940462219135" height="271.8743145190425" class="excalidraw-svg">
  <!-- svg-source:excalidraw -->
  
  <defs>
    <style class="style-fonts">
      
    </style>
    
  </defs>
  <rect x="0" y="0" width="1095.5940462219135" height="271.8743145190425" fill="#ffffff"></rect><g stroke-linecap="round" transform="translate(20.585323734490657 35.38239081321558) rotate(0 62 18)"><path d="M0 0 C44.81 -0.65, 93.47 -2.26, 124 0 M0 0 C39.97 -1.92, 79.83 -1.92, 124 0 M124 0 C122.52 11.16, 124 23.46, 124 36 M124 0 C125.23 11.17, 123.53 23.35, 124 36 M124 36 C88.17 35.26, 48.95 37.51, 0 36 M124 36 C84.57 35.96, 46.61 35.17, 0 36 M0 36 C-1.2 22.75, -0.88 11.12, 0 0 M0 36 C-0.29 26.77, -0.28 16.19, 0 0" stroke="#000000" stroke-width="1" fill="none"></path></g><g transform="translate(42.58532373449066 41.38239081321558) rotate(0 40 12)"><text x="40" y="17.119999999999997" font-family="Local Font, Segoe UI Emoji" font-size="20px" fill="#000000" text-anchor="middle" style="white-space: pre;" direction="ltr" dominant-baseline="alphabetic">编写博客</text></g><g stroke-linecap="round" transform="translate(10 135.12159877863712) rotate(0 75.5 29)"><path d="M0 0 C44.66 1.66, 90.17 1.87, 151 0 M0 0 C31.91 1.35, 63.8 0.62, 151 0 M151 0 C151.26 18, 150.3 34.75, 151 58 M151 0 C150.58 16.98, 150.64 34.42, 151 58 M151 58 C112.26 59.92, 71.54 57.55, 0 58 M151 58 C92.49 58.65, 33.39 57.65, 0 58 M0 58 C-0.13 44.65, 1.22 29.36, 0 0 M0 58 C0.61 35.1, -0.91 12.81, 0 0" stroke="#000000" stroke-width="1" fill="none"></path></g><g transform="translate(23.130027770996094 152.12159877863712) rotate(0 62.369972229003906 12)"><text x="62.369972229003906" y="17.119999999999997" font-family="Local Font, Segoe UI Emoji" font-size="20px" fill="#000000" text-anchor="middle" style="white-space: pre;" direction="ltr" dominant-baseline="alphabetic">推送到 github</text></g><g stroke-linecap="round"><g transform="translate(81.90083066409358 72.38239081321558) rotate(0 1.214601263225859 29.969610086226396)"><path d="M0.33 -1.08 C0.79 8.57, 2.57 48.69, 2.95 58.86 M-0.95 0.97 C-0.63 10.64, 1.79 49.79, 2.28 59.83" stroke="#000000" stroke-width="1" fill="none"></path></g><g transform="translate(81.90083066409358 72.38239081321558) rotate(0 1.214601263225859 29.969610086226396)"><path d="M-7.57 36.85 C-6.05 44.99, -2.93 51.79, 2.28 59.83 M-7.57 36.85 C-4.71 43.8, -1.36 50.79, 2.28 59.83" stroke="#000000" stroke-width="1" fill="none"></path></g><g transform="translate(81.90083066409358 72.38239081321558) rotate(0 1.214601263225859 29.969610086226396)"><path d="M9.51 35.9 C5.61 44.39, 3.32 51.49, 2.28 59.83 M9.51 35.9 C7.27 43, 5.52 50.28, 2.28 59.83" stroke="#000000" stroke-width="1" fill="none"></path></g></g><mask></mask><g stroke-linecap="round" transform="translate(237.41143592981814 10) rotate(0 116.74502763638782 119.52472388853369)"><path d="M0 0 C74.98 -0.54, 152.98 -0.24, 233.49 0 M0 0 C53.01 0.11, 106.27 -0.3, 233.49 0 M233.49 0 C234.66 94.38, 233.55 188.84, 233.49 239.05 M233.49 0 C233.25 89.98, 233.01 179.13, 233.49 239.05 M233.49 239.05 C181.41 239.56, 129.79 239.19, 0 239.05 M233.49 239.05 C175.13 238.21, 117.62 238.78, 0 239.05 M0 239.05 C-0.95 171.47, -1.8 100.46, 0 0 M0 239.05 C-0.73 148.9, -0.37 59.89, 0 0" stroke="#000000" stroke-width="1" fill="none"></path></g><g transform="translate(286.2096001421314 22.97261879657117) rotate(0 72.25995635986328 12)"><text x="0" y="17.119999999999997" font-family="Local Font, Segoe UI Emoji" font-size="20px" fill="#000000" text-anchor="start" style="white-space: pre;" direction="ltr" dominant-baseline="alphabetic">obsidian 主仓库</text></g><g stroke-linecap="round" transform="translate(291.28915712753576 100.1840564278391) rotate(0 67.5 31)"><path d="M0 0 C41.61 -0.83, 86.18 -0.02, 135 0 M0 0 C43.2 0.38, 83.75 1.29, 135 0 M135 0 C136.61 17.84, 134.74 38.77, 135 62 M135 0 C134.5 20.23, 135.21 38.77, 135 62 M135 62 C88.45 61.1, 43.23 61.61, 0 62 M135 62 C96.64 63.64, 58.41 63.26, 0 62 M0 62 C1.45 40.56, -0.57 17.53, 0 0 M0 62 C0.26 47.71, -0.14 33.74, 0 0" stroke="#000000" stroke-width="1" fill="none"></path></g><g transform="translate(327.1891662828092 107.1840564278391) rotate(0 31.599990844726562 24)"><text x="31.599990844726562" y="17.119999999999997" font-family="Local Font, Segoe UI Emoji" font-size="20px" fill="#000000" text-anchor="middle" style="white-space: pre;" direction="ltr" dominant-baseline="alphabetic">_POST</text><text x="31.599990844726562" y="41.12" font-family="Local Font, Segoe UI Emoji" font-size="20px" fill="#000000" text-anchor="middle" style="white-space: pre;" direction="ltr" dominant-baseline="alphabetic">文件夹</text></g><g stroke-linecap="round"><g transform="translate(172.35925403409738 159.07567899775268) rotate(0 41.02510194608254 -15.089706316124534)"><path d="M0.29 0.16 C14.15 -4.95, 69.17 -25.53, 82.99 -30.6 M-1.02 -0.81 C12.79 -5.74, 68.53 -24.58, 82.54 -29.28" stroke="#000000" stroke-width="1" fill="none"></path></g><g transform="translate(172.35925403409738 159.07567899775268) rotate(0 41.02510194608254 -15.089706316124534)"><path d="M63.01 -13.67 C68.8 -16.57, 73.37 -20.67, 82.54 -29.28 M63.01 -13.67 C68.81 -18.21, 74.53 -22.13, 82.54 -29.28" stroke="#000000" stroke-width="1" fill="none"></path></g><g transform="translate(172.35925403409738 159.07567899775268) rotate(0 41.02510194608254 -15.089706316124534)"><path d="M57.54 -29.88 C64.88 -28.2, 71 -27.71, 82.54 -29.28 M57.54 -29.88 C64.8 -29.76, 72.12 -28.98, 82.54 -29.28" stroke="#000000" stroke-width="1" fill="none"></path></g></g><mask></mask><g stroke-linecap="round" transform="translate(607.1309248375601 15.723846748994902) rotate(0 99.497565517541 123.0752338850238)"><path d="M0 0 C63.77 0.34, 128.74 -3.05, 199 0 M0 0 C76 0.46, 151.42 -0.48, 199 0 M199 0 C197.99 90.04, 200.71 182.5, 199 246.15 M199 0 C199.88 76.11, 199.29 152.77, 199 246.15 M199 246.15 C146.22 246.71, 93.35 246.71, 0 246.15 M199 246.15 C126.83 247.04, 56.87 246.03, 0 246.15 M0 246.15 C1.32 180.79, 1.13 114.23, 0 0 M0 246.15 C-0.01 175.13, 0.35 103.59, 0 0" stroke="#000000" stroke-width="1" fill="none"></path></g><g transform="translate(652.4000078093218 27.85817237520405) rotate(0 53.46997559070587 12)"><text x="0" y="17.119999999999997" font-family="Local Font, Segoe UI Emoji" font-size="20px" fill="#000000" text-anchor="start" style="white-space: pre;" direction="ltr" dominant-baseline="alphabetic">blog 主仓库</text></g><g stroke-linecap="round"><g transform="translate(482.64083873537965 73.25311148562741) rotate(0 58.472535524682286 -0.471545452495036)"><path d="M-0.9 0.98 C18.41 0.87, 97.3 -0.59, 116.96 -0.76 M0.83 0.45 C19.88 0.57, 96.77 1.26, 116.02 0.87" stroke="#000000" stroke-width="1" fill="none"></path></g><g transform="translate(482.64083873537965 73.25311148562741) rotate(0 58.472535524682286 -0.471545452495036)"><path d="M92.56 9.5 C103.46 6.3, 111.39 3.01, 116.02 0.87 M92.56 9.5 C102.12 6.42, 110.66 2.3, 116.02 0.87" stroke="#000000" stroke-width="1" fill="none"></path></g><g transform="translate(482.64083873537965 73.25311148562741) rotate(0 58.472535524682286 -0.471545452495036)"><path d="M92.5 -7.6 C103.4 -4.05, 111.36 -0.59, 116.02 0.87 M92.5 -7.6 C102.01 -4.25, 110.58 -1.94, 116.02 0.87" stroke="#000000" stroke-width="1" fill="none"></path></g></g><mask></mask><g transform="translate(482.64091068860347 36.34620637978628) rotate(0 60.98994445800781 12)"><text x="0" y="17.119999999999997" font-family="Local Font, Segoe UI Emoji" font-size="20px" fill="#000000" text-anchor="start" style="white-space: pre;" direction="ltr" dominant-baseline="alphabetic">github action</text></g><g stroke-linecap="round" transform="translate(960.5940462219135 48.250820909616095) rotate(0 62.5 71.5)"><path d="M0 0 C39.17 -0.93, 74.95 1.32, 125 0 M0 0 C38.21 1.84, 77.89 1.05, 125 0 M125 0 C124.68 47.12, 124.99 95.86, 125 143 M125 0 C125.46 41.45, 125.46 81.56, 125 143 M125 143 C82.32 142.23, 36.13 141.12, 0 143 M125 143 C96.94 142.67, 68.15 142.78, 0 143 M0 143 C1.82 100.52, 1.41 55.14, 0 0 M0 143 C-0.04 107.59, -0.39 71.43, 0 0" stroke="#000000" stroke-width="1" fill="none"></path></g><g transform="translate(983.0940462219135 107.7508209096161) rotate(0 40 12)"><text x="40" y="17.119999999999997" font-family="Local Font, Segoe UI Emoji" font-size="20px" fill="#000000" text-anchor="middle" style="white-space: pre;" direction="ltr" dominant-baseline="alphabetic">对象存储</text></g><g stroke-linecap="round"><g transform="translate(824.667925547234 128.251822291174) rotate(0 58.472535524682286 -0.471545452495036)"><path d="M0.85 0.14 C20.51 -0.13, 98.26 -1.85, 117.46 -1.85 M-0.16 -0.83 C19.43 -0.96, 97.01 -0.65, 116.78 -0.79" stroke="#000000" stroke-width="1" fill="none"></path></g><g transform="translate(824.667925547234 128.251822291174) rotate(0 58.472535524682286 -0.471545452495036)"><path d="M93.29 7.78 C99.6 6.26, 103.92 1.67, 116.78 -0.79 M93.29 7.78 C102.83 4.9, 111.76 0.56, 116.78 -0.79" stroke="#000000" stroke-width="1" fill="none"></path></g><g transform="translate(824.667925547234 128.251822291174) rotate(0 58.472535524682286 -0.471545452495036)"><path d="M93.28 -9.32 C99.56 -6.43, 103.88 -6.6, 116.78 -0.79 M93.28 -9.32 C102.81 -5.53, 111.75 -3.2, 116.78 -0.79" stroke="#000000" stroke-width="1" fill="none"></path></g></g><mask></mask><g transform="translate(824.6679975004578 91.34491718533286) rotate(0 60.98994445800781 12)"><text x="0" y="17.119999999999997" font-family="Local Font, Segoe UI Emoji" font-size="20px" fill="#000000" text-anchor="start" style="white-space: pre;" direction="ltr" dominant-baseline="alphabetic">github action</text></g></svg>