<svg version="1.1" xmlns="http://www.w3.org/2000/svg" viewBox="0 0 1413.2045816087389 284.58454716837997" width="1413.2045816087389" height="284.58454716837997" class="excalidraw-svg">
  <!-- svg-source:excalidraw -->
  
  <defs>
    <style class="style-fonts">
      
    </style>
    
  </defs>
  <rect x="0" y="0" width="1413.2045816087389" height="284.58454716837997" fill="#ffffff"></rect><g stroke-linecap="round" transform="translate(20.585323734490657 35.38239081321558) rotate(0 62 18)"><path d="M0 0 C43.52 -0.71, 88.19 1.79, 124 0 M0 0 C36.96 0.18, 72.28 0.69, 124 0 M124 0 C124.84 9.79, 124.59 18.68, 124 36 M124 0 C123.45 13.05, 124.22 24.04, 124 36 M124 36 C82.72 38.45, 40.13 36.4, 0 36 M124 36 C95.76 35.57, 67.54 35.54, 0 36 M0 36 C0.11 27.07, -1.94 19.76, 0 0 M0 36 C0.32 21.58, 0.88 8.35, 0 0" stroke="#000000" stroke-width="1" fill="none"></path></g><g transform="translate(42.58532373449066 41.38239081321558) rotate(0 40 12)"><text x="40" y="17.119999999999997" font-family="Local Font, Segoe UI Emoji" font-size="20px" fill="#000000" text-anchor="middle" style="white-space: pre;" direction="ltr" dominant-baseline="alphabetic">编写博客</text></g><g stroke-linecap="round" transform="translate(10 135.1215987786372) rotate(0 75.5 29)"><path d="M0 0 C35.33 0.35, 70.4 0.85, 151 0 M0 0 C41.99 -1.37, 85.42 0.12, 151 0 M151 0 C152.2 16.47, 149.56 33.45, 151 58 M151 0 C151.65 20.7, 152.12 42.01, 151 58 M151 58 C94.38 57.73, 39.1 57.66, 0 58 M151 58 C97.35 59.51, 44.59 58.91, 0 58 M0 58 C1.99 40.06, -0.97 25.51, 0 0 M0 58 C-1.07 46.65, 0.24 34.05, 0 0" stroke="#000000" stroke-width="1" fill="none"></path></g><g transform="translate(23.130027770996094 152.1215987786372) rotate(0 62.369972229003906 12)"><text x="62.369972229003906" y="17.119999999999997" font-family="Local Font, Segoe UI Emoji" font-size="20px" fill="#000000" text-anchor="middle" style="white-space: pre;" direction="ltr" dominant-baseline="alphabetic">推送到 github</text></g><g stroke-linecap="round"><g transform="translate(81.68336049740583 72.38239081321558) rotate(0 1.2856798171952732 29.96961008622643)"><path d="M1.05 -0.24 C1.38 9.87, 2.52 50.46, 2.72 60.31 M0.14 -1.42 C0.26 8.36, 1.66 48.21, 1.85 58.38" stroke="#000000" stroke-width="1" fill="none"></path></g><g transform="translate(81.68336049740583 72.38239081321558) rotate(0 1.2856798171952732 29.96961008622643)"><path d="M-7.35 35.14 C-4.49 43.74, -0.13 51.4, 1.85 58.38 M-7.35 35.14 C-5.25 40.42, -3.81 45.31, 1.85 58.38" stroke="#000000" stroke-width="1" fill="none"></path></g><g transform="translate(81.68336049740583 72.38239081321558) rotate(0 1.2856798171952732 29.96961008622643)"><path d="M9.75 34.66 C6.41 43.58, 4.57 51.42, 1.85 58.38 M9.75 34.66 C8.27 40.14, 6.12 45.13, 1.85 58.38" stroke="#000000" stroke-width="1" fill="none"></path></g></g><mask></mask><g stroke-linecap="round" transform="translate(237.41143592981814 10) rotate(0 116.74502763638782 119.52472388853369)"><path d="M0 0 C91.03 -0.68, 179.49 1.31, 233.49 0 M0 0 C83.16 -0.51, 166.92 -1.62, 233.49 0 M233.49 0 C233.04 62.27, 234.7 124.59, 233.49 239.05 M233.49 0 C234.49 88.51, 234.92 177.58, 233.49 239.05 M233.49 239.05 C161.69 238.47, 89.64 238.94, 0 239.05 M233.49 239.05 C159.15 238.05, 83.38 236.8, 0 239.05 M0 239.05 C0.76 165.58, 3.16 95.53, 0 0 M0 239.05 C-1.52 158.04, 0.01 77.2, 0 0" stroke="#000000" stroke-width="1" fill="none"></path></g><g transform="translate(286.2096001421314 22.97261879657117) rotate(0 72.25995635986328 12)"><text x="0" y="17.119999999999997" font-family="Local Font, Segoe UI Emoji" font-size="20px" fill="#000000" text-anchor="start" style="white-space: pre;" direction="ltr" dominant-baseline="alphabetic">obsidian 主仓库</text></g><g stroke-linecap="round" transform="translate(291.28915712753576 100.18405642783918) rotate(0 68 31)"><path d="M0 0 C38.46 -1.34, 75.51 -2.33, 136 0 M0 0 C46.76 1.72, 94.72 0.22, 136 0 M136 0 C137.49 22.68, 137.63 41.99, 136 62 M136 0 C136.2 14.69, 136.34 28.83, 136 62 M136 62 C104.12 61.13, 69.79 62.37, 0 62 M136 62 C84.96 60.11, 34.47 60.39, 0 62 M0 62 C0.26 48.66, -0.29 31.95, 0 0 M0 62 C-1.34 44.4, -0.81 26.62, 0 0" stroke="#000000" stroke-width="1" fill="none"></path></g><g transform="translate(298.1591893188123 119.18405642783918) rotate(0 61.12996780872345 12)"><text x="61.12996780872345" y="17.119999999999997" font-family="Local Font, Segoe UI Emoji" font-size="20px" fill="#000000" text-anchor="middle" style="white-space: pre;" direction="ltr" dominant-baseline="alphabetic">public 文件夹</text></g><g stroke-linecap="round"><g transform="translate(172.35925403409738 159.07567899775273) rotate(0 41.02510194608254 -15.089706316124527)"><path d="M-0.64 0.56 C12.97 -4.73, 67.94 -26.19, 81.64 -31.2 M1.22 -0.19 C14.65 -5.41, 67.26 -24.98, 80.47 -30.2" stroke="#000000" stroke-width="1" fill="none"></path></g><g transform="translate(172.35925403409738 159.07567899775273) rotate(0 41.02510194608254 -15.089706316124527)"><path d="M61.58 -13.83 C68.03 -19.26, 70.97 -24.27, 80.47 -30.2 M61.58 -13.83 C68.69 -19.42, 75.89 -24.58, 80.47 -30.2" stroke="#000000" stroke-width="1" fill="none"></path></g><g transform="translate(172.35925403409738 159.07567899775273) rotate(0 41.02510194608254 -15.089706316124527)"><path d="M55.48 -29.81 C63.81 -30.48, 68.55 -30.76, 80.47 -30.2 M55.48 -29.81 C64.82 -29.66, 74.19 -29.13, 80.47 -30.2" stroke="#000000" stroke-width="1" fill="none"></path></g></g><mask></mask><g stroke-linecap="round" transform="translate(609.0171066475402 14.78075584400483) rotate(0 99.497565517541 123.0752338850238)"><path d="M0 0 C47.36 -0.17, 99.24 1.38, 199 0 M0 0 C41.97 0.61, 82.76 0.69, 199 0 M199 0 C196.3 64.86, 198.39 129.77, 199 246.15 M199 0 C197.43 85.67, 197.56 170.32, 199 246.15 M199 246.15 C129.43 244.53, 60.96 245.65, 0 246.15 M199 246.15 C152.23 248.15, 104.67 247.88, 0 246.15 M0 246.15 C0.1 195.01, 0.06 146.07, 0 0 M0 246.15 C-0.01 187.68, 1.08 126.98, 0 0" stroke="#000000" stroke-width="1" fill="none"></path></g><g transform="translate(652.4000078093218 27.858172375204163) rotate(0 53.46997559070587 12)"><text x="0" y="17.119999999999997" font-family="Local Font, Segoe UI Emoji" font-size="20px" fill="#000000" text-anchor="start" style="white-space: pre;" direction="ltr" dominant-baseline="alphabetic">blog 主仓库</text></g><g stroke-linecap="round"><g transform="translate(489.3306065582234 65.76901524095615) rotate(0 56.07074251825043 -0.279520292817395)"><path d="M0.42 -1.12 C19.28 -1.32, 93.87 -0.73, 112.68 -0.49 M-0.82 0.9 C17.98 0.86, 93.03 1.49, 112.01 1.08" stroke="#000000" stroke-width="1" fill="none"></path></g><g transform="translate(489.3306065582234 65.76901524095615) rotate(0 56.07074251825043 -0.279520292817395)"><path d="M88.56 9.74 C92.67 8.32, 100.7 7.04, 112.01 1.08 M88.56 9.74 C96.87 5.61, 106.13 2.34, 112.01 1.08" stroke="#000000" stroke-width="1" fill="none"></path></g><g transform="translate(489.3306065582234 65.76901524095615) rotate(0 56.07074251825043 -0.279520292817395)"><path d="M88.48 -7.36 C92.71 -4.38, 100.75 -1.26, 112.01 1.08 M88.48 -7.36 C96.93 -5.11, 106.22 -2.01, 112.01 1.08" stroke="#000000" stroke-width="1" fill="none"></path></g></g><mask></mask><g transform="translate(487.577114234736 24.005509210359946) rotate(0 60.98994445800781 12)"><text x="0" y="17.119999999999997" font-family="Local Font, Segoe UI Emoji" font-size="20px" fill="#000000" text-anchor="start" style="white-space: pre;" direction="ltr" dominant-baseline="alphabetic">github action</text></g><g stroke-linecap="round" transform="translate(940.69165651114 24.094820547110146) rotate(0 102 59.5)"><path d="M0 0 C71.61 -0.5, 142.04 -2.34, 204 0 M0 0 C46.74 1.84, 93.51 1.8, 204 0 M204 0 C205.35 27.85, 203.29 57.33, 204 119 M204 0 C203.03 43.77, 203.59 88.73, 204 119 M204 119 C158.46 120.68, 111.74 118.3, 0 119 M204 119 C146.04 118.49, 89.28 118.14, 0 119 M0 119 C2.95 87.99, -0.58 53.04, 0 0 M0 119 C1.52 92.64, 1.28 67.76, 0 0" stroke="#000000" stroke-width="1" fill="none"></path></g><g transform="translate(951.971685808015 71.59482054711015) rotate(0 90.719970703125 12)"><text x="90.719970703125" y="17.119999999999997" font-family="Local Font, Segoe UI Emoji" font-size="20px" fill="#000000" text-anchor="middle" style="white-space: pre;" direction="ltr" dominant-baseline="alphabetic">vercel 提供构建服务</text></g><g stroke-linecap="round"><g transform="translate(820.887415315203 64.28597529934171) rotate(0 53.37267597827619 -1.25314554766409)"><path d="M-0.45 -0.86 C17.24 -1.59, 89.03 -3.24, 106.92 -3.41 M1.52 1.31 C19 0.62, 88.62 -1.48, 106.07 -2.35" stroke="#000000" stroke-width="1" fill="none"></path></g><g transform="translate(820.887415315203 64.28597529934171) rotate(0 53.37267597827619 -1.25314554766409)"><path d="M82.92 7.1 C89.88 4.03, 98.25 0.49, 106.07 -2.35 M82.92 7.1 C90.4 4.47, 98.8 0.55, 106.07 -2.35" stroke="#000000" stroke-width="1" fill="none"></path></g><g transform="translate(820.887415315203 64.28597529934171) rotate(0 53.37267597827619 -1.25314554766409)"><path d="M82.26 -9.99 C89.6 -6.81, 98.21 -4.1, 106.07 -2.35 M82.26 -9.99 C90.01 -6.62, 98.65 -4.54, 106.07 -2.35" stroke="#000000" stroke-width="1" fill="none"></path></g></g><mask></mask><g stroke-linecap="round"><g transform="translate(918.2017143154071 88.33029997747552) rotate(0 -46.466808742488126 -0.25534449365022027)"><path d="M0.18 -0.91 C-15.22 -0.75, -77.33 -0.06, -92.8 0.1 M-1.19 1.23 C-16.69 1.11, -78.34 -1.16, -93.68 -1.7" stroke="#000000" stroke-width="1" fill="none"></path></g><g transform="translate(918.2017143154071 88.33029997747552) rotate(0 -46.466808742488126 -0.25534449365022027)"><path d="M-69.9 -9.41 C-77.72 -7.13, -81.43 -4.83, -93.68 -1.7 M-69.9 -9.41 C-78.56 -6.34, -86.67 -4.69, -93.68 -1.7" stroke="#000000" stroke-width="1" fill="none"></path></g><g transform="translate(918.2017143154071 88.33029997747552) rotate(0 -46.466808742488126 -0.25534449365022027)"><path d="M-70.51 7.68 C-78.04 5.47, -81.6 3.28, -93.68 -1.7 M-70.51 7.68 C-78.85 4.81, -86.74 0.52, -93.68 -1.7" stroke="#000000" stroke-width="1" fill="none"></path></g></g><mask></mask><g stroke-linecap="round" transform="translate(948.3503458475285 204.31229119304695) rotate(0 100 31)"><path d="M0 0 C63.87 0.24, 126.75 -1.32, 200 0 M0 0 C75.82 -1.1, 152.36 0.32, 200 0 M200 0 C197.74 14.58, 198.31 25.35, 200 62 M200 0 C200.71 23.75, 199.38 47.08, 200 62 M200 62 C122.58 60.02, 44.83 60, 0 62 M200 62 C158.05 62.98, 114.33 62.96, 0 62 M0 62 C-1.25 49.01, 0.45 34.41, 0 0 M0 62 C0.8 46.47, -0.05 31, 0 0" stroke="#000000" stroke-width="1" fill="none"></path></g><g transform="translate(1002.2403853809052 223.31229119304695) rotate(0 46.109960466623306 12)"><text x="46.109960466623306" y="17.119999999999997" font-family="Local Font, Segoe UI Emoji" font-size="20px" fill="#000000" text-anchor="middle" style="white-space: pre;" direction="ltr" dominant-baseline="alphabetic">cloudflare</text></g><g stroke-linecap="round" transform="translate(1292.8391225242021 164.21908808384345) rotate(0 55.18272954226825 55.18272954226826)"><path d="M79.4 6.32 C87.52 9.47, 96.32 17.34, 101.6 24.81 C106.89 32.29, 110.72 42.09, 111.09 51.17 C111.47 60.25, 108.14 71, 103.86 79.29 C99.59 87.59, 92.88 95.66, 85.41 100.95 C77.95 106.23, 68.07 110.45, 59.06 111 C50.05 111.55, 39.72 108.53, 31.34 104.23 C22.97 99.92, 13.91 92.71, 8.82 85.19 C3.73 77.66, 1.17 68.34, 0.8 59.07 C0.43 49.8, 2.46 38.05, 6.59 29.57 C10.72 21.1, 17.94 13.22, 25.57 8.22 C33.19 3.22, 42.26 -0.38, 52.36 -0.43 C62.45 -0.47, 79.97 5.63, 86.15 7.97 C92.33 10.3, 90.03 12.64, 89.41 13.56 M54.6 0.82 C62.95 -0.21, 72.39 2.54, 80.55 6.59 C88.71 10.64, 98.67 17.05, 103.57 25.11 C108.47 33.16, 109.79 45.62, 109.93 54.94 C110.07 64.26, 108.94 73.23, 104.41 81.04 C99.88 88.86, 90.65 96.78, 82.76 101.82 C74.87 106.85, 65.99 110.8, 57.07 111.25 C48.16 111.69, 37.29 109.27, 29.28 104.5 C21.27 99.74, 14.15 90.69, 9.03 82.66 C3.91 74.62, -1.28 65.53, -1.41 56.31 C-1.55 47.09, 3.39 35.21, 8.2 27.32 C13.01 19.43, 19.72 13.34, 27.43 8.95 C35.15 4.56, 50.1 2.18, 54.48 1 C58.87 -0.18, 53.98 1.33, 53.74 1.85" stroke="none" stroke-width="0" fill="white"></path><path d="M38.37 2.49 C46.17 -0.83, 56.78 -0.17, 65.87 1.64 C74.96 3.45, 86.05 7.27, 92.89 13.37 C99.74 19.46, 104.39 29.21, 106.95 38.19 C109.51 47.18, 110.15 58.41, 108.25 67.28 C106.35 76.15, 101.41 84.58, 95.54 91.41 C89.67 98.23, 81.59 105.24, 73.01 108.25 C64.42 111.27, 53.16 111.68, 44.05 109.5 C34.94 107.32, 25.26 101.26, 18.34 95.19 C11.41 89.11, 5.38 81.77, 2.49 73.05 C-0.39 64.32, -0.88 52.04, 1.04 42.85 C2.95 33.67, 6.51 25.02, 14 17.94 C21.48 10.86, 39.24 3.31, 45.95 0.38 C52.66 -2.55, 53.84 -0.69, 54.24 0.36 M32.14 4.51 C40.2 0.38, 53.04 -1.69, 62.46 -0.56 C71.87 0.56, 81.44 5.73, 88.64 11.27 C95.84 16.8, 102.05 24.49, 105.63 32.66 C109.22 40.83, 110.95 50.97, 110.13 60.29 C109.31 69.6, 106.23 80.8, 100.72 88.54 C95.2 96.29, 85.51 102.98, 77.04 106.74 C68.58 110.5, 58.83 112.52, 49.93 111.09 C41.03 109.66, 31.18 103.63, 23.66 98.15 C16.14 92.67, 8.88 86.46, 4.8 78.21 C0.72 69.96, -1.6 57.78, -0.81 48.67 C-0.03 39.56, 3.72 30.73, 9.51 23.56 C15.3 16.38, 29.7 8.6, 33.91 5.62 C38.13 2.65, 34.64 5.06, 34.79 5.71" stroke="#000000" stroke-width="1" fill="none"></path></g><g stroke-linecap="round" transform="translate(1329.6854013910283 184.7468744517379) rotate(0 19.57097208499971 19.570972084999713)"><path d="M15.36 0.88 C19.11 -0.37, 24.66 0, 28.35 1.79 C32.04 3.58, 35.81 7.66, 37.49 11.62 C39.17 15.59, 39.57 21.5, 38.44 25.58 C37.31 29.65, 34.25 33.78, 30.69 36.06 C27.13 38.34, 21.29 39.75, 17.1 39.24 C12.91 38.74, 8.32 36.18, 5.54 33.03 C2.77 29.89, 0.79 24.62, 0.45 20.38 C0.11 16.14, 1.01 10.97, 3.51 7.62 C6.02 4.26, 13.32 1.34, 15.48 0.25 C17.64 -0.84, 16.32 0.74, 16.47 1.07 M18.82 0.58 C22.71 0.07, 27.34 1.88, 30.53 4.32 C33.72 6.76, 36.91 11.11, 37.94 15.22 C38.98 19.33, 38.59 25.26, 36.73 28.99 C34.87 32.72, 30.51 35.98, 26.78 37.58 C23.05 39.17, 18.25 39.78, 14.33 38.59 C10.42 37.39, 5.56 33.93, 3.29 30.39 C1.02 26.86, 0.19 21.49, 0.72 17.39 C1.24 13.3, 3.6 8.73, 6.45 5.82 C9.29 2.92, 15.71 0.98, 17.8 -0.02 C19.89 -1.03, 18.91 -0.65, 18.98 -0.22" stroke="none" stroke-width="0" fill="black"></path><path d="M17.43 0.29 C21.42 -0.37, 27.71 0.74, 31.16 3.11 C34.6 5.48, 37.15 10.33, 38.11 14.5 C39.06 18.66, 38.63 24.37, 36.87 28.11 C35.11 31.85, 31.21 35.16, 27.55 36.93 C23.9 38.71, 18.9 39.76, 14.93 38.77 C10.96 37.78, 6.21 34.55, 3.74 30.99 C1.28 27.43, -0.19 21.53, 0.13 17.4 C0.44 13.26, 2.55 9.14, 5.62 6.17 C8.69 3.21, 16.28 0.6, 18.57 -0.38 C20.87 -1.37, 19.4 -0.12, 19.38 0.25 M15.75 -0.14 C19.58 -1.48, 24.43 -0.46, 27.98 1.57 C31.53 3.61, 35.26 8.17, 37.05 12.07 C38.83 15.97, 39.78 20.94, 38.67 24.97 C37.55 29, 33.97 33.96, 30.35 36.24 C26.72 38.51, 21.11 39.32, 16.92 38.64 C12.74 37.96, 7.94 35.15, 5.22 32.15 C2.51 29.15, 0.86 24.65, 0.66 20.64 C0.46 16.64, 1.5 11.38, 4.04 8.11 C6.58 4.84, 13.89 2.34, 15.9 1.02 C17.92 -0.3, 16.13 -0.12, 16.12 0.21" stroke="#000000" stroke-width="1" fill="none"></path></g><g stroke-linecap="round"><g transform="translate(1310.3624231613803 248.97167264480393) rotate(0 38.088780376234865 -0.14840899383429118)" fill-rule="evenodd"><path d="M-0.7 -1.45 C2.31 -3.93, 9.82 -12.69, 16.04 -15.38 C22.26 -18.06, 28.66 -17.71, 36.62 -17.58 C44.58 -17.46, 57.54 -16.96, 63.8 -14.6 C70.07 -12.24, 74.36 -8.12, 74.19 -3.42 C74.02 1.29, 67.02 10.05, 62.77 13.63 C58.51 17.21, 54.12 17.08, 48.67 18.09 C43.22 19.09, 35.91 20.87, 30.07 19.67 C24.23 18.46, 18.6 14.5, 13.62 10.86 C8.65 7.23, 2.15 -0.45, 0.23 -2.15" stroke="none" stroke-width="0" fill="black" fill-rule="evenodd"></path><path d="M-0.42 0.24 C2.46 -2.29, 9.97 -11.02, 16.53 -14.22 C23.09 -17.43, 31.47 -19.13, 38.94 -19.01 C46.42 -18.88, 55.17 -16.24, 61.38 -13.48 C67.59 -10.72, 75.53 -6.84, 76.2 -2.45 C76.88 1.94, 70.39 9.03, 65.42 12.87 C60.46 16.71, 52.31 19.48, 46.4 20.59 C40.49 21.71, 35.29 20.99, 29.96 19.57 C24.63 18.16, 19.6 15.4, 14.41 12.1 C9.23 8.8, 1.06 1.82, -1.17 -0.23 M1.55 -0.68 C4.32 -3.18, 9.31 -9.84, 15.46 -13.21 C21.61 -16.57, 30.83 -20.94, 38.44 -20.88 C46.05 -20.81, 55.05 -15.87, 61.1 -12.83 C67.15 -9.79, 74.34 -7.29, 74.75 -2.63 C75.15 2.03, 68.24 11.37, 63.54 15.1 C58.85 18.83, 52.28 19.03, 46.58 19.76 C40.87 20.49, 34.9 20.97, 29.3 19.47 C23.69 17.98, 18.02 14.17, 12.96 10.79 C7.91 7.41, 1.44 0.88, -1.02 -0.81" stroke="#000000" stroke-width="1" fill="none"></path></g></g><mask></mask><g stroke-linecap="round"><g transform="translate(1277.3252212248221 227.70647732578445) rotate(0 -56.487437688646764 3.7388768554139915)"><path d="M-0.23 -0.99 C-18.91 0.36, -93.51 7.12, -112.47 8.38 M-1.82 1.1 C-20.57 2.11, -94.85 5.67, -113.15 6.74" stroke="#000000" stroke-width="1" fill="none"></path></g><g transform="translate(1277.3252212248221 227.70647732578445) rotate(0 -56.487437688646764 3.7388768554139915)"><path d="M-90.14 -3.03 C-97.86 0.35, -100.79 0.42, -113.15 6.74 M-90.14 -3.03 C-94.78 -1.64, -101.33 2.02, -113.15 6.74" stroke="#000000" stroke-width="1" fill="none"></path></g><g transform="translate(1277.3252212248221 227.70647732578445) rotate(0 -56.487437688646764 3.7388768554139915)"><path d="M-89.24 14.05 C-97.24 12.91, -100.4 8.46, -113.15 6.74 M-89.24 14.05 C-94.1 11.55, -100.85 11.32, -113.15 6.74" stroke="#000000" stroke-width="1" fill="none"></path></g></g><mask></mask><g transform="translate(1201.1334469123062 194.75531014481302) rotate(0 20 12)"><text x="0" y="17.119999999999997" font-family="Local Font, Segoe UI Emoji" font-size="20px" fill="#000000" text-anchor="start" style="white-space: pre;" direction="ltr" dominant-baseline="alphabetic">访问</text></g><g stroke-linecap="round"><g transform="translate(1035.1467134115478 198.6536018566588) rotate(0 -1.4146003808731393 -24.049177843365953)"><path d="M0.01 -0.5 C-0.33 -8.5, -1.97 -40.58, -2.51 -48.44 M-0.65 0.44 C-0.99 -7.47, -2.53 -39.76, -2.77 -47.92" stroke="#000000" stroke-width="1" fill="none"></path></g><g transform="translate(1035.1467134115478 198.6536018566588) rotate(0 -1.4146003808731393 -24.049177843365953)"><path d="M6.37 -25.63 C3.57 -29.86, 1.87 -36, -2.77 -47.92 M6.37 -25.63 C2.99 -34.05, -1.16 -42.7, -2.77 -47.92" stroke="#000000" stroke-width="1" fill="none"></path></g><g transform="translate(1035.1467134115478 198.6536018566588) rotate(0 -1.4146003808731393 -24.049177843365953)"><path d="M-10.1 -24.97 C-9.34 -29.35, -7.47 -35.63, -2.77 -47.92 M-10.1 -24.97 C-7.2 -33.68, -5.07 -42.58, -2.77 -47.92" stroke="#000000" stroke-width="1" fill="none"></path></g></g><mask></mask><g transform="translate(1069.098561616981 162.68978765580775) rotate(0 25.989976048469543 12)"><text x="0" y="17.119999999999997" font-family="Local Font, Segoe UI Emoji" font-size="20px" fill="#000000" text-anchor="start" style="white-space: pre;" direction="ltr" dominant-baseline="alphabetic">proxy</text></g><g transform="translate(627.5375386623379 79.99510099203542) rotate(0 95.15996551513672 12)"><text x="0" y="17.119999999999997" font-family="Local Font, Segoe UI Emoji" font-size="20px" fill="#000000" text-anchor="start" style="white-space: pre;" direction="ltr" dominant-baseline="alphabetic">content（博客内容）</text></g><g transform="translate(674.4321314149294 147.86893542388017) rotate(0 31.579989552497864 12)"><text x="0" y="17.119999999999997" font-family="Local Font, Segoe UI Emoji" font-size="20px" fill="#000000" text-anchor="start" style="white-space: pre;" direction="ltr" dominant-baseline="alphabetic">ui 框架</text></g></svg>